<?xml version="1.0" standalone="no"?>
<!DOCTYPE svg PUBLIC "-//W3C//DTD SVG 1.1//EN" "http://www.w3.org/Graphics/SVG/1.1/DTD/svg11.dtd" >
<!--
2013-9-30: Created.
-->
<svg>
<metadata>
Created by iconfont
</metadata>
<defs>

<font id="iconfont" horiz-adv-x="1024" >
  <font-face
    font-family="iconfont"
    font-weight="500"
    font-stretch="normal"
    units-per-em="1024"
    ascent="896"
    descent="-128"
  />
    <missing-glyph />
    
    <glyph glyph-name="keyunzhan" unicode="&#58908;" d="M861.6-9.9v-14.6c0-56.4-45.7-102.2-102.2-102.2h-29.2c-56.4 0-102.2 45.7-102.2 102.2v14.6H394.6v-14.6c0-56.4-45.7-102.2-102.2-102.2h-29.2c-56.4 0-102.2 45.7-102.2 102.2v14.6c-64.5 0-116.8 52.3-116.8 116.8V778.2C44.3 842.7 96.6 895 161.1 895h700.5c64.5 0 116.8-52.3 116.8-116.8v-671.4c0-64.4-52.3-116.7-116.8-116.7zM920 749c0 48.4-39.2 87.6-87.6 87.6H190.3c-48.4 0-87.6-39.2-87.6-87.6v-613c0-48.4 39.2-87.6 87.6-87.6h29.2v-73c0-24.2 19.6-43.8 43.8-43.8h29.2c24.2 0 43.8 19.6 43.8 43.8v73h350.3v-73c0-24.2 19.6-43.8 43.8-43.8h29.2c24.2 0 43.8 19.6 43.8 43.8v73h29.2c48.4 0 87.6 39.2 87.6 87.6l-0.2 613zM774.1 369.6H248.7c-32.2 0-58.4 26.1-58.4 58.4V690.7c0 32.2 26.1 58.4 58.4 58.4h525.4c32.2 0 58.4-26.1 58.4-58.4V428c-0.1-32.3-26.2-58.4-58.4-58.4z m0 291.9c0 16.1-13.1 29.2-29.2 29.2h-467c-16.1 0-29.2-13.1-29.2-29.2v-204.3c0-16.1 13.1-29.2 29.2-29.2h467c16.1 0 29.2 13.1 29.2 29.2V661.5zM307 311.2c48.4 0 87.6-39.2 87.6-87.6 0-48.4-39.2-87.6-87.6-87.6-48.4 0-87.6 39.2-87.6 87.6 0.1 48.4 39.3 87.6 87.6 87.6z m0-116.7c16.1 0 29.2 13.1 29.2 29.2s-13.1 29.2-29.2 29.2-29.2-13.1-29.2-29.2c0.1-16.2 13.1-29.2 29.2-29.2z m408.7 116.7c48.4 0 87.6-39.2 87.6-87.6 0-48.4-39.2-87.6-87.6-87.6-48.4 0-87.6 39.2-87.6 87.6 0 48.4 39.2 87.6 87.6 87.6z m0-116.7c16.1 0 29.2 13.1 29.2 29.2s-13.1 29.2-29.2 29.2-29.2-13.1-29.2-29.2c0-16.2 13.1-29.2 29.2-29.2z m0 0"  horiz-adv-x="1024" />

    
    <glyph glyph-name="renyuan" unicode="&#58910;" d="M647.168 408.576c51.2 40.448 84.48 102.4 84.48 172.544 0 120.832-98.304 219.648-219.648 219.648-120.832 0-219.648-98.304-219.648-219.648 0-70.144 33.28-132.096 84.48-172.544-134.656-53.76-230.4-185.856-230.4-339.456v-73.216c0-20.48 16.384-36.352 36.352-36.352h658.432c20.48 0 36.352 16.384 36.352 36.352v73.216c0.512 153.6-95.232 285.696-230.4 339.456zM366.08 581.12c0 80.896 65.536 146.432 146.432 146.432s146.432-65.536 146.432-146.432-65.536-146.432-146.432-146.432-146.432 65.536-146.432 146.432z m438.784-548.864H219.648v36.352c0 161.28 131.072 292.864 292.864 292.864 161.28 0 292.352-131.072 292.352-292.864v-36.352zM267.264 396.288c1.024 2.048 1.024 4.608 1.536 6.656 0.512 1.536 0.512 2.56 1.024 4.096 0.512 3.072 0 5.632-0.512 8.704v4.608c0 1.024-1.024 1.536-1.024 2.56-0.512 1.536-1.536 3.072-2.048 4.608-1.536 3.072-3.072 6.144-5.12 8.704l-1.024 1.024c-3.072 3.584-7.168 6.144-11.264 8.192-40.448 16.896-66.048 56.32-66.048 99.328 0 50.688 34.304 94.72 83.968 106.496 19.456 4.608 31.744 24.576 27.136 44.032-4.608 19.456-24.576 31.744-44.032 27.136C167.424 702.976 109.568 629.76 109.568 544.768c0-46.08 17.408-89.6 47.616-122.88C61.952 372.736 0 273.92 0 162.304v-56.32c0-19.968 16.384-36.352 36.352-36.352 20.48 0 36.352 16.384 36.352 36.352v56.32c0 101.376 68.096 187.904 165.376 212.48 12.8 2.048 24.064 9.216 29.184 21.504z m599.552 25.6c29.696 32.768 47.616 76.288 47.616 122.88 0 82.432-55.808 155.136-135.168 176.64-19.456 5.12-39.424-6.144-45.056-25.6-5.12-19.456 6.144-39.424 25.6-45.056 47.616-12.8 81.408-56.32 81.408-105.984 0-43.52-25.6-82.432-65.024-100.352-4.608-2.048-8.192-4.608-11.776-8.192l-1.024-1.024c-2.048-2.56-4.096-5.632-5.632-8.704-0.512-1.536-1.536-3.072-2.048-4.608 0-1.024-1.024-1.536-1.024-2.56-0.512-1.536 0-3.072 0-4.608-0.512-3.072-0.512-5.632-0.512-8.704 0-1.536 0.512-2.56 1.024-4.096 0.512-2.048 0.512-4.608 1.536-6.656 5.12-12.288 16.384-19.456 28.672-20.992 97.792-24.576 165.376-111.616 165.376-212.48v-56.32c0-19.968 16.384-36.352 36.352-36.352 19.968 0 36.352 16.384 36.352 36.352v56.32c0.512 112.128-61.44 210.944-156.672 260.096z"  horiz-adv-x="1024" />

    
    <glyph glyph-name="qiye2" unicode="&#58896;" d="M416 281.6H256c-19.2 0-32-12.8-32-32s12.8-32 32-32h160c19.2 0 32 12.8 32 32s-12.8 32-32 32zM416 537.6H256c-19.2 0-32-12.8-32-32s12.8-32 32-32h160c19.2 0 32 12.8 32 32s-12.8 32-32 32zM992-6.399999999999977h-64V435.2c0 38.4-28.8 73.6-67.2 83.2L576 592V761.6c0 22.4-9.6 44.8-28.8 57.6-22.4 16-54.4 22.4-86.4 12.8L166.4 758.4C124.8 748.8 96 710.4 96 668.8v-678.4H32c-19.2 0-32-12.8-32-32s12.8-32 32-32h960c19.2 0 32 12.8 32 32s-12.8 35.2-32 35.2z m-480 0H160V668.8c0 12.8 9.6 25.6 22.4 28.8l294.4 76.8c16 3.2 25.6 0 32-3.2 3.2-3.2 3.2-6.4 3.2-9.6v-768z m352 0h-288V528l268.8-70.4c9.6-3.2 19.2-16 19.2-22.4v-441.6zM768 281.6h-96c-19.2 0-32-12.8-32-32s12.8-32 32-32h96c19.2 0 32 12.8 32 32s-12.8 32-32 32z"  horiz-adv-x="1024" />

    
    <glyph glyph-name="icon-test" unicode="&#59403;" d="M925.14757425 185.98742597v93.34483965h-103.28689356v-51.64344679H202.13931931V692.47983986H512v103.28689357H98.85242575v-609.77930746l-99.69670744-249.10368448c-6.35186779-16.01775355-4.41869063-33.96868425 5.24719514-48.05326063 9.66588576-14.08457639 25.68363931-22.64578949 42.80606552-22.6457895h929.58204206c17.12242621 0 33.14017975 8.5612131 42.80606552 22.6457895s11.59906291 32.31167525 5.24719514 48.05326063l-99.69670744 249.10368448z m-801.71618186-216.51584105l61.86166888 154.93034035h653.1377093l61.86166886-154.93034035H123.43139239zM821.86068069 901.81530864l-206.57378712-68.76587299v-265.12143802l206.57378712-206.57378712 206.57378713 206.57378712v265.12143802l-206.57378713 68.76587299zM925.14757425 610.45789497l-103.28689356-103.28689355-103.28689356 103.28689355v148.02613623l103.28689356 34.52102059 103.28689356-34.52102059V610.45789497z"  horiz-adv-x="1024" />

    
    <glyph glyph-name="luchanfeifushusheshi" unicode="&#58937;" d="M660.562867 600.947463l-319.271534 0q-8.18645 0-14.326287-3.581572t-9.721409-9.721409-3.581572-14.326287l0-9.209756q0-3.069919 1.023306-6.65149t2.558265-6.65149 4.093225-5.628184 5.628184-4.093225 6.65149-2.558265 7.674796-1.023306l319.271534 0q11.256368 0 19.442818 7.674796t8.18645 18.931165l0 9.209756q0 8.18645-3.581572 14.326287t-9.721409 9.721409-14.326287 3.581572zM780.289693 710.441226l-566.911634 0q-8.18645 0-14.326287-3.581572t-9.721409-9.721409-3.581572-13.302981l0-329.504596q0-5.116531 2.046612-10.233062t5.628184-9.209756 8.698103-6.139837 11.256368-2.046612l255.82655 0 0-228.197282q0-11.256368 7.674796-19.442818t19.442818-8.18645 19.442818 8.18645 7.674796 19.442818l0 228.197282 256.849856 0q11.256368 0 18.931165 8.18645t7.674796 19.442818l0 329.504596q0 11.256368-7.674796 18.931165t-18.931165 7.674796zM752.660425 409.589204q0-8.18645-3.581572-14.326287t-10.233062-9.721409-13.814634-3.581572l-457.417871 0q-11.256368 0-19.442818 7.674796t-8.18645 19.954471l0 218.987526q0 7.163143 4.093225 13.814634t10.233062 10.233062 13.302981 3.581572l457.417871 0q11.256368 0 19.442818-8.18645t8.18645-19.442818l0-218.987526zM450.785097 482.243944l-109.493763 0q-11.256368 0-19.442818-8.18645t-8.18645-19.442818q0-4.093225 1.534959-8.18645t3.581572-7.674796 5.628184-6.139837 7.674796-4.093225 9.209756-1.534959l109.493763 0q5.116531 0 10.233062 2.558265t8.698103 6.139837 6.139837 8.698103 2.558265 10.233062q0 2.046612-0.511653 4.604878t-1.023306 4.604878-1.534959 3.581572-2.558265 3.581572-3.069919 3.581572-3.069919 2.558265-3.581572 2.046612-4.093225 1.023306l-4.093225 2.046612-4.093225 0z"  horiz-adv-x="1024" />

    
    <glyph glyph-name="kaiguan" unicode="&#58933;" d="M830.08 787.68a48 48 0 0 1-34.08 13.92 50.56 50.56 0 0 1-50.56-50.56 45.76 45.76 0 0 1 12.64-35.36 404.48 404.48 0 1 0-488 0 50.56 50.56 0 0 1-35.36 85.92 53.12 53.12 0 0 1-36.64-13.92 503.68 503.68 0 1 1 632 0z m0 0M514.08 339.04a50.56 50.56 0 0 1 50.56 46.72V840.8a50.56 50.56 0 1 1-101.12 0v-455.04a50.4 50.4 0 0 1 50.56-46.72z m0 0"  horiz-adv-x="1024" />

    
    <glyph glyph-name="daolu" unicode="&#58956;" d="M227.468071 213.635154v227.428704H170.581369a56.847334 56.847334 0 1 0 0 113.773403h203.926032l142.157702 142.118335h194.162778V839.152666a56.847334 56.847334 0 1 0 113.694667 0v-142.19707h142.197071a56.847334 56.847334 0 0 0 0-113.694668h-142.197071v-265.615624a170.581369 170.581369 0 1 0-217.744185-217.744185H341.202107v-170.620738a56.847334 56.847334 0 0 0-113.773404 0v170.620738H56.886702a56.847334 56.847334 0 1 0 0 113.734035h170.620737z m113.734036 0h265.576256a171.093153 171.093153 0 0 0 104.049518 104.01015V583.260928H563.749183l-142.118335-142.19707H341.162739v-227.428704z m377.22379-85.310368a56.847334 56.847334 0 1 1 98.498635 56.886701 56.847334 56.847334 0 0 1-98.498635-56.886701z"  horiz-adv-x="1024" />

    
    <glyph glyph-name="daochu" unicode="&#58892;" d="M477.3 251.6V766.2c0 18.9 15.4 34.3 34.3 34.3s34.3-15.4 34.3-34.3v-514.6c0-18.9-15.4-34.3-34.3-34.3s-34.3 15.4-34.3 34.3M281.8 585l205.5 205.6c13.4 13.3 35.1 13.3 48.5 0 13.3-13.3 13.3-35.2 0-48.5L330.3 536.5c-13.4-13.3-35.1-13.3-48.5 0-13.4 13.4-13.4 35.1 0 48.5m253.9 205.5L741.3 585c13.3-13.4 13.3-35.1 0-48.5-13.3-13.4-35.2-13.4-48.5 0L487.2 742c-13.3 13.4-13.3 35.1 0 48.5 13.4 13.3 35.1 13.3 48.5 0m284.7-813.4H202.8C146-22.9 99.9 23.3 99.9 80V285.9c0 19 15.3 34.3 34.3 34.3s34.3-15.3 34.3-34.3V80c0-18.9 15.4-34.3 34.3-34.3h617.6c18.9 0 34.3 15.4 34.3 34.3V285.9c0 19 15.3 34.3 34.3 34.3 19 0 34.3-15.3 34.3-34.3V80c0-56.7-46.2-102.9-102.9-102.9"  horiz-adv-x="1024" />

    
    <glyph glyph-name="zuobiao" unicode="&#58979;" d="M512 832.72c-197.505 0-357.615-160.11-357.615-357.615 0-79.842 26.17-153.57 70.393-213.084l-0.212-0.001 1.316-1.478a359.626 359.626 0 0 1 39.88-44.77l246.237-276.427L751.825 209.83c72.338 65.439 117.788 160.047 117.788 265.275C869.615 672.61 709.505 832.72 512 832.72z m0-493.225c-74.418 0-134.745 60.327-134.745 134.745S437.582 608.985 512 608.985s134.745-60.327 134.745-134.745S586.417 339.495 512 339.495z"  horiz-adv-x="1024" />

    
    <glyph glyph-name="shanchu1" unicode="&#58894;" d="M799.2 21.6c0-34.4-28-62.4-62.368-62.4H287.2a62.496 62.496 0 0 0-62.4 62.4V684h574.4v-662.4zM349.6 796c0 7.2 5.6 12.8 12.8 12.8h300c7.2 0 12.768-5.6 12.768-12.8v-37.6H349.6V796z m636.8-37.6H749.6V796c0 48-39.2 87.2-87.2 87.2h-300a87.392 87.392 0 0 1-87.2-87.2v-37.6H37.6C16.8 758.4 0 741.6 0 720.8s16.8-37.6 37.6-37.6h112v-661.6A137.6 137.6 0 0 1 287.2-116h449.6a137.6 137.6 0 0 1 137.6 137.6V684h112c20.8 0 37.6 16.8 37.6 37.6s-16.8 36.8-37.6 36.8zM512 72c20.8 0 37.6 16.8 37.6 37.6v400c0 20.8-16.768 37.6-37.6 37.6-20.8 0-37.6-16.8-37.6-37.6v-400c0-20.8 16.8-37.6 37.6-37.6m-175.2 0c20.8 0 37.6 16.8 37.6 37.6v400c0 20.8-16.8 37.6-37.6 37.6s-37.6-16.8-37.6-37.6v-400c0.8-20.8 17.6-37.6 37.6-37.6m350.4 0c20.8 0 37.632 16.8 37.632 37.6v400c0 20.8-16.8 37.6-37.632 37.6-20.768 0-37.6-16.8-37.6-37.6v-400c0-20.8 16.8-37.6 37.6-37.6"  horiz-adv-x="1024" />

    
    <glyph glyph-name="xianchangdanju" unicode="&#59362;" d="M236.48 672.32c0-105.92 82.24-191.68 184-191.68s184 85.76 184 191.68S522.24 864 420.48 864c-101.44 0-184-85.76-184-191.68z m575.04-616.64c-13.76 30.72-42.56 121.92-74.88 121.92-32.64 0-35.2-12.48-35.2-12.48l35.2-94.4-180.48 15.68-76.48 180.48c-74.56 184-149.12 204.8-222.08 204.8-35.2 0-109.44-4.16-166.08-75.84C34.56 324.16 0-73.28 0-73.28h345.6l-124.16 241.6 52.48 33.28s9.28-20.16 70.08-149.76 102.72-147.2 102.72-147.2h324.8c47.68 0 86.4 15.36 86.4 77.12 0 61.44-46.4 73.92-46.4 73.92z m0 0M689.6 414.4s-33.6-64.64-60.16-92.48-78.72-98.24-38.08-155.2L710.4 362.56l248.64-113.6-91.52-136.64s-12.8-54.4 4.48-56.64C889.28 53.44 1023.68 272 1023.68 272L689.6 414.4z m0 0"  horiz-adv-x="1024" />

    
    <glyph glyph-name="qiehuan" unicode="&#59027;" d="M1158.4 654.72L947.2 865.92a27.584 27.584 0 0 1-47.104-19.52V682.24a27.584 27.584 0 0 0-27.584-27.52H62.912a27.584 27.584 0 0 1-27.52-27.648v-73.92c0-15.232 12.288-27.584 27.52-27.584h1157.952a27.584 27.584 0 0 1 19.52 47.04L1158.4 654.72zM125.248 109.248l211.2-211.2c17.28-17.28 47.04-4.992 47.04 19.584v164.032c0 15.232 12.352 27.584 27.584 27.584h809.6a27.584 27.584 0 0 1 27.648 27.648v73.92a27.584 27.584 0 0 1-27.648 27.584H62.784a27.584 27.584 0 0 1-19.52-47.104l82.048-82.048z"  horiz-adv-x="1280" />

    
    <glyph glyph-name="jiankong" unicode="&#58895;" d="M950.235429 458.861714A435.675429 435.675429 0 0 1 512.109714 895.780571 435.675429 435.675429 0 0 1 73.984 458.861714c0-190.134857 121.782857-351.926857 292.132571-412.598857-93.257143-32.329143-154.185143-93.110857-154.185142-161.865143h588.178285c0 68.827429-56.758857 129.536-145.956571 161.865143 174.482286 60.598857 296.082286 222.390857 296.082286 412.598857zM520.265143 151.405714c-125.805714 0-231.277714 105.252571-231.277714 230.619429S394.422857 612.571429 520.265143 612.571429a230.838857 230.838857 0 0 0 231.314286-230.546286 230.912 230.912 0 0 0-231.314286-230.619429zM512.109714 483.108571c-60.854857 0-113.481143-52.662857-113.481143-113.225142 0-64.731429 52.626286-113.225143 113.481143-113.225143a113.225143 113.225143 0 1 1 0 226.450285z"  horiz-adv-x="1024" />

    
    <glyph glyph-name="xiugai1" unicode="&#59043;" d="M126.976 896h516.608a50.0736 50.0736 0 0 0 7.3728-99.5328l-7.3728-0.512H126.976a26.9312 26.9312 0 0 1-26.4192-21.504l-0.6144-5.5296v-769.8432c0-13.1072 9.216-23.9616 21.504-26.4192l5.5296-0.6144h769.8432c13.1072 0 23.9616 9.216 26.4192 21.504l0.6144 5.5296V481.1776a50.0736 50.0736 0 0 0 99.5328 7.4752l0.512-7.4752v-482.0992a126.976 126.976 0 0 0-116.1216-126.5664L897.024-128H127.0784A126.976 126.976 0 0 0 0.512-11.8784L0-1.024V768.9216C0 835.584 51.0976 889.9584 116.1216 895.488L126.976 896h516.5056H126.976z m290.304-551.1168L938.0864 880.8448a50.0736 50.0736 0 0 0 76.9024-63.488l-5.12-6.2464-520.8064-535.9616a50.0736 50.0736 0 0 0-77.0048 63.488l5.2224 6.144L938.0864 880.9472 417.28 344.8832z"  horiz-adv-x="1024" />

    
    <glyph glyph-name="chaoqiweichuli" unicode="&#59056;" d="M516.727 836h-0.073c-183.826 0-334.23-150.404-334.23-334.231v-367.654h251.102a300.263 300.263 0 0 0-17.14 100.27c0 166.133 134.674 300.808 300.808 300.808a299.531 299.531 0 0 0 133.692-31.282C849.735 686.755 699.822 836 516.727 836z m-69.008-735.309H115.577v-66.845H48.73V-33h530.592a302.04 302.04 0 0 0-131.603 133.691z m493.7-66.844A301.916 301.916 0 0 0 855.063-33h129.515v66.847h-43.159zM713.182 471.563c-133.421 0-241.586-108.166-241.586-241.586 0-133.42 108.166-241.586 241.586-241.586s241.586 108.166 241.586 241.586c0 133.42-108.165 241.586-241.586 241.586z m96.634-289.904h-96.635c-13.343 0-24.159 10.816-24.159 24.159V350.77c0 13.343 10.816 24.159 24.159 24.159s24.159-10.816 24.159-24.159v-120.793h72.476c13.343 0 24.158-10.815 24.158-24.158s-10.815-24.16-24.158-24.16z"  horiz-adv-x="1024" />

    
    <glyph glyph-name="zhihangbilu" unicode="&#58996;" d="M157.131034 456.386207H353.103448c7.062069 0 14.124138 5.296552 14.124138 12.358621 0 7.062069-7.062069 12.358621-14.124138 12.35862H157.131034c-7.062069 0-14.124138-5.296552-14.124137-12.35862 0-5.296552 7.062069-12.358621 14.124137-12.358621z m427.255173-79.448276H157.131034c-7.062069 0-14.124138-5.296552-14.124137-12.358621 0-7.062069 7.062069-12.358621 14.124137-12.35862h427.255173c7.062069 0 14.124138 5.296552 14.124138 12.35862 0 7.062069-7.062069 12.358621-14.124138 12.358621z m0-107.696552H157.131034c-7.062069 0-14.124138-5.296552-14.124137-12.35862 0-7.062069 7.062069-12.358621 14.124137-12.358621h427.255173c7.062069 0 14.124138 5.296552 14.124138 12.358621 0 7.062069-7.062069 12.358621-14.124138 12.35862z m0-107.696551H157.131034c-7.062069 0-14.124138-5.296552-14.124137-12.358621 0-7.062069 7.062069-12.358621 14.124137-12.358621h427.255173c7.062069 0 14.124138 5.296552 14.124138 12.358621 0 5.296552-7.062069 12.358621-14.124138 12.358621zM983.393103 122.703448l-31.77931-67.089655h-54.731034L865.103448 122.703448V772.413793h51.2v-617.931034c0-7.062069 7.062069-12.358621 14.124138-12.358621s14.124138 5.296552 14.124138 12.358621V772.413793h37.075862l1.765517-649.710345z m19.42069 688.551724h-158.896552c-12.358621 0-21.186207-8.827586-21.186207-19.420689V119.172414c0-3.531034 0-5.296552 1.765518-7.062069l79.448276-174.786207c3.531034-7.062069 10.593103-12.358621 19.420689-12.358621 8.827586 0 15.889655 5.296552 19.42069 12.358621l79.448276 174.786207c1.765517 1.765517 1.765517 5.296552 1.765517 7.062069V791.834483c0 10.593103-8.827586 19.42069-21.186207 19.420689zM68.855172-20.303448V788.303448h466.096552v-105.931034c0-10.593103 8.827586-19.42069 21.186207-19.42069h116.524138v-681.489655H68.855172zM596.744828 843.034483c-7.062069 5.296552-15.889655 8.827586-24.717242 8.827586H35.310345c-19.42069 0-35.310345-14.124138-35.310345-33.544828v-873.931034c0-17.655172 15.889655-33.544828 35.310345-33.544828h674.427586c19.42069 0 35.310345 14.124138 35.310345 33.544828V696.496552c0 8.827586-3.531034 17.655172-10.593104 22.951724l-137.710344 123.586207z"  horiz-adv-x="1024" />

    
    <glyph glyph-name="yonghuguanli" unicode="&#58890;" d="M728.782 249.892c-50.647 0-91.845-41.177-91.845-91.771 0-50.641 41.196-91.865 91.845-91.865 50.665 0 91.932 41.226 91.932 91.865 0 50.596-41.267 91.771-91.932 91.771z m0-136.318c-24.561 0-44.503 19.987-44.503 44.547 0 24.515 19.942 44.501 44.503 44.501 24.603 0 44.57-19.986 44.57-44.501 0.002-24.56-19.967-44.547-44.57-44.547z m243.024 92.514c-3.509 18.14-15.187 29.957-30.143 29.957h-2.12c-28.673 0-51.982 23.267-51.982 51.933 0 7.526 3.233 16.714 4.526 19.669 7.106 15.97 1.661 35.591-14.13 46.485l-60.841 33.653c-4.801 2.076-9.927 3.142-15.308 3.142-11.034 0-21.93-4.48-29.148-11.959-7.597-7.848-27.68-23.912-41.573-23.912-13.989 0-34.25 16.386-41.821 24.326-7.271 7.666-18.262 12.233-29.41 12.233-5.329 0-10.387-1.016-14.933-3.002l-1.151-0.459-61.904-33.977-1.458-0.972c-14.447-9.971-19.916-29.592-12.881-45.425 0.489-1.106 4.643-11.171 4.643-19.806 0-28.666-23.355-51.934-52.048-51.934h-2.4c-14.656 0-26.335-11.816-29.799-30.006-0.527-2.77-5.126-27.931-5.126-48.287 0-20.313 4.599-45.425 5.126-48.238 3.464-18.191 15.143-29.914 30.144-29.914h2.057c28.666 0 52.048-23.362 52.048-51.983 0-7.521-3.299-16.756-4.547-19.662-7.131-15.929-1.662-35.55 14.078-46.487l59.669-33.238c4.757-2.076 9.927-3.139 15.327-3.139 11.219 0 22.202 4.659 29.43 12.512 7.359 7.939 28.227 25.435 42.471 25.435 14.402 0 35.032-17.494 42.789-25.988 7.227-7.987 18.28-12.696 29.596-12.696 5.33 0 10.455 1.016 16.549 3.738l60.338 33.333 1.477 0.924c14.403 9.971 19.85 29.589 12.786 45.424-0.414 1.153-4.57 11.216-4.57 19.848 0 28.621 23.311 51.983 51.982 51.983h2.444c14.588 0 26.31 11.723 29.729 29.866 0.045 0.276 5.172 26.912 5.172 48.287-0.006 20.355-4.623 45.516-5.088 48.336z m-45.285-80.053c-48.979-6.367-86.323-48.193-86.323-98.421 0-11.585 2.813-22.617 5.26-30.098l-43.553-24.006c-3.903 3.833-10.156 9.558-17.911 15.28-19.275 14.265-37.88 21.562-55.397 21.562-17.355 0-35.849-7.158-54.98-21.19-7.643-5.584-13.806-11.124-17.797-14.958l-41.617 23.269c2.495 7.479 5.284 18.558 5.284 30.143 0 50.228-37.319 92.055-86.297 98.421-1.274 8.124-3.024 21.283-3.024 31.716 0 10.525 1.75 23.729 3.024 31.807 48.978 6.418 86.297 48.243 86.297 98.42 0 11.544-2.789 22.576-5.261 30.01l44.96 24.648c3.88-3.692 10.156-9.186 17.823-14.678 18.88-13.436 37.07-20.268 54.078-20.268 16.83 0 34.88 6.739 53.646 19.897 7.614 5.398 13.753 10.755 17.7 14.354l43.024-23.867c-2.445-7.476-5.26-18.511-5.26-30.1 0-50.177 37.346-92.002 86.323-98.42 1.293-8.262 2.997-21.421 2.997-31.807 0.003-10.384-1.703-23.493-2.996-31.714zM105.618-8.394V43.59c0 176.803 136.459 322.495 310.289 338.885l-0.07 0.045h0.464a338.63 338.63 0 0 0 32.334 1.573c1.644 0 3.253-0.096 4.916-0.141 38.408 2.998 96.574 12.047 126.973 39.146l14.887 11.54c58.146 45.426 91.475 113.146 91.475 185.947 0 130.365-106.915 236.449-238.294 236.449-131.403 0-238.318-106.084-238.318-236.449 0-72.803 33.353-140.521 91.474-185.947l14.887-11.54-17.542-6.973C144.256 354.732 44.198 208.486 44.198 43.591v-82.403c0-16.756 13.753-30.42 30.697-30.42H523.63a308.651 308.651 0 0 0-37.141 60.84l-380.871-0.002z m166.074 628.982c0 96.807 79.357 175.605 176.899 175.605 97.543 0 176.899-78.8 176.899-175.605 0-96.852-79.356-175.698-176.899-175.698-97.542-0.002-176.899 78.846-176.899 175.698z"  horiz-adv-x="1024" />

    
    <glyph glyph-name="rizhishezhi" unicode="&#58988;" d="M311.2 608H682v-64H311.2z m0-192H682v-64H311.2z m0-192H682v-64H311.2zM960 384c0 59.4-39.5 109.1-92.7 123.4V704c0 52.9-41.6 96-92.7 96H218.5c-51.1 0-92.7-43.1-92.7-96v-160H64v-64h61.8v-192H64v-64h61.8v-160c0-52.9 41.6-96 92.7-96h556.1c51.1 0 92.7 43.1 92.7 96V260.6c53.2 14.3 92.7 64 92.7 123.4zM774.6 32H218.5c-17 0-30.9 14.4-30.9 32V224h61.8v64h-61.8V480h61.8v64h-61.8V704c0 17.6 13.8 32 30.9 32h556.1c17 0 30.9-14.4 30.9-32v-196.6c-53.2-14.3-92.7-64-92.7-123.4s39.5-109.1 92.7-123.4V64c0-17.6-13.8-32-30.9-32z m61.8 288c-34.1 0-61.8 28.7-61.8 64s27.7 64 61.8 64c34.1 0 61.8-28.7 61.8-64s-27.7-64-61.8-64z"  horiz-adv-x="1024" />

    
    <glyph glyph-name="jiaoseyonghu" unicode="&#58918;" d="M1251.33 713.201H925.753a39.512 39.512 0 0 1 0-79.024h325.577a39.512 39.512 0 0 1 0 79.024z m-113-158.046H925.757a39.512 39.512 0 0 1 0-79.024h212.573a39.512 39.512 0 0 1 0 79.024z m-105.1-161.209H925.758a39.512 39.512 0 0 1 0-79.024h106.682a39.512 39.512 0 0 1 0 79.024z m-378.524-10.273a265.52 265.52 0 1 1-312.143 0A467.03 467.03 0 0 1 32-56.488a39.512 39.512 0 0 1 79.024 0 388.006 388.006 0 0 0 775.222 0 39.512 39.512 0 0 1 79.023 0 467.03 467.03 0 0 1-310.563 440.162zM312.534 597.037A186.496 186.496 0 1 0 499.03 410.541a186.496 186.496 0 0 0-186.496 186.496z"  horiz-adv-x="1344" />

    
    <glyph glyph-name="qiyetongjiguanli-" unicode="&#59011;" d="M295.05024 389.73952c17.80224 16.50176 35.59936 32.9984 53.49888 49.39776a6541.568 6541.568 0 0 1 54.99904 50.80064 8931.072 8931.072 0 0 0 45.9008 42.5984c13.30176 12.20096 22.2976 20.39808 27.20256 24.69888 14.40256 12.9024 29.19936 19.59936 44.09856 19.99872 15.0016 0.50176 30.10048-6.20032 45.59872-19.99872 3.39968-2.89792 11.40224-10.30144 23.90016-22.20032s27.49952-25.99936 44.9024-42.19904 35.79904-33.50016 55.3984-51.90144l0.50176-0.50176a180.73088 180.73088 0 0 0 54.2976 8.29952c29.9008 0 58.19904-7.30112 83.00032-20.1984-3.90144 3.70176-8.00256 7.5008-12.29824 11.60192a3361.32608 3361.32608 0 0 0-44.49792 42.5984 3720.7552 3720.7552 0 0 1-49.60256 47.60064c-16.90112 16-33.50016 31.8976-49.89952 47.60064-14.80192 14.19776-29.59872 28.40064-44.49792 42.5984-13.30176 12.60032-24.40192 23.3984-33.60256 32.19968s-15.20128 14.40256-18.0992 16.79872c-15.0016 14.30016-33.1008 21.2992-54.2976 21.09952-21.1968-0.19968-40.99584-9.20064-59.29984-26.90048-2.40128-2.40128-10.90048-10.39872-25.7024-24.00256-14.69952-13.59872-32.30208-29.99808-52.80256-48.9984-20.50048-19.0976-42.7008-39.59808-66.60096-61.59872-22.2976-20.50048-44.60032-41.00096-66.89792-61.59872-17.89952-16.50176-35.70176-32.90112-53.49888-49.39776-14.8992-13.7984-23.90016-22.20032-26.79808-25.09824-7.70048-7.19872-11.8016-16.79872-12.29824-28.99968s4.10112-22.59968 13.70112-31.09888c8.69888-7.70048 19.0976-11.20256 31.09888-10.79808 12.09856 0.50176 21.69856 3.59936 28.9024 9.29792 2.40128 1.89952 9.4976 8.20224 21.4016 19.00032 11.79136 11.00288 25.89184 24.00256 42.2912 39.30112zM564.64896 268.13952c0 63.20128 32.50176 118.89664 81.69984 151.19872a60263.05536 60263.05536 0 0 0-80.70144 74.30144c-13.50144 12.40064-26.30144 22.70208-43.20256 22.70208-16.9984 0-33.79712-11.6992-45.7984-22.70208-1.89952-1.89952-187.60192-170.39872-227.2-206.19776V134.144c0-6.4 2.40128-12.8 7.30112-17.69984s11.20256-7.30112 17.60256-7.30112h140.6976c3.2 0 6.4 1.19808 8.80128 3.70176a12.51328 12.51328 0 0 1 3.70176 8.80128v109.70112c0 3.2 1.19808 6.4 3.59936 8.80128a12.16512 12.16512 0 0 0 8.80128 3.70176h126.39744c-0.9984 7.78752-1.69984 15.98976-1.69984 24.28928zM593.75104 114.53952v28.40064a5.0176 5.0176 0 0 0 5.00224 5.00224h274.80064c2.69824 0 5.00224-2.29888 5.00224-5.00224v-28.40064a5.08416 5.08416 0 0 0-5.00224-5.00224h-274.80064a5.0176 5.0176 0 0 0-5.00224 5.00224z m25.00096 185.29792h56.69888c2.80064 0 5.00224-2.2016 5.00224-5.00224v-127.8976c0-2.80064-2.2016-5.00224-5.00224-5.00224H618.752a5.0176 5.0176 0 0 0-5.00224 5.00224v127.8976c0 2.70336 2.29888 5.00224 5.00224 5.00224z m88.99584 40.80128h56.69888c2.69824 0 5.00224-2.29888 5.00224-5.00224v-168.69888a5.0176 5.0176 0 0 0-5.00224-5.00224h-56.69888a4.95616 4.95616 0 0 0-5.00224 5.00224v168.69888a5.08928 5.08928 0 0 0 5.00224 5.00224z m89.00096 53.69856h56.69888c2.69824 0 5.00224-2.29888 5.00224-5.00224v-222.39744a5.0176 5.0176 0 0 0-5.00224-5.00224h-56.69888a5.0176 5.0176 0 0 0-5.00224 5.00224V389.33504a5.08928 5.08928 0 0 0 5.00224 5.00224z"  horiz-adv-x="1024" />

    
    <glyph glyph-name="shebei" unicode="&#58914;" d="M364.6 547.74a32 32 0 0 1 26.17 13.37 143.77 143.77 0 0 0 235.15 0 32 32 0 0 1 26.17-13.37c25.93 0 41 29.26 26 50.41a207.71 207.71 0 0 1-339.47 0c-15-21.15 0.06-50.41 26-50.41zM271.23 550.42a32.11 32.11 0 0 1 29.39 19.2 226.75 226.75 0 0 0 47.34 69c46.29 46.29 109.06 70.11 175.09 66a227.26 227.26 0 0 0 192.61-134 33.73 33.73 0 0 1 30.77-20.12c22.51 0 37.78 23.07 28.8 43.72a291.17 291.17 0 0 1-533.39 0.78c-9.22-21 6.42-44.6 29.39-44.6zM477.03 560.38m32 0l0 0q32 0 32-32l0-85.36q0-32-32-32l0 0q-32 0-32 32l0 85.36q0 32 32 32ZM830.34 454.41H191.71a64 64 0 0 1-64-64v-286.86a64 64 0 0 1 64-64h638.63a64 64 0 0 1 64 64V390.41a64 64 0 0 1-64 64zM349.75 235.74a12 12 0 0 0-12-12H268.3a12 12 0 0 0-12 12v71.79a12 12 0 0 0 12 12h69.45a12 12 0 0 0 12-12z m157.79 1.54a12 12 0 0 0-12-12h-69.45a12 12 0 0 0-12 12v71.78a12 12 0 0 0 12 12h69.45a12 12 0 0 0 12-12z m256.59-76a31.75 31.75 0 0 0-31.66-31.66 31.76 31.76 0 0 0-31.66 31.66v193a31.76 31.76 0 0 0 31.66 31.66 31.75 31.75 0 0 0 31.66-31.66z"  horiz-adv-x="1024" />

    
    <glyph glyph-name="xingxing" unicode="&#58909;" d="M550.477576 896l163.188363-330.658909 364.978425-53.341091-264.098909-257.241212 62.339878-363.364849-326.438788 171.659637-326.438787-171.659637 62.370909 363.364849-264.12994 257.241212 364.978425 53.372121z"  horiz-adv-x="1086" />

    
    <glyph glyph-name="chepai" unicode="&#58888;" d="M1165.556279 604.139221c-7.492721 7.492721-13.486897 14.382934-20.995067 21.891104l59.988112 37.4945-52.526289 134.961665-149.978003-15.00089c-7.492721 7.50817-7.492721 15.00089-15.000891 22.49361-15.00089 15.00089-22.493611 29.986331-29.986331 37.494501-29.986331 44.987221-37.494501 52.526289-67.480832 52.526289H447.212933c-22.493611 0-29.986331-7.50817-67.480832-52.526289-7.492721-7.492721-15.00089-22.493611-29.986332-37.494501 0 0-7.492721-7.50817-15.00089-22.49361L192.275045 798.48649 132.286934 663.524825l63.139689-30.125371c-7.492721-7.50817-37.494501-42.793476-37.494501-42.793477l-19.218442-27.529954-15.139931-21.087761c-7.50817-15.00089-6.256808-13.44055-6.256808-35.934161v-277.431498c0-44.987221 22.493611-74.989002 67.480833-74.989002h142.438936c45.00267 0 67.480832 29.986331 67.480832 67.480833v22.509059h524.892114v-22.493611c0-37.494501 22.493611-67.480832 67.480832-67.480832h142.469834c44.987221 0 74.989002 29.986331 74.989002 74.989002V491.053211c0 52.526289 0.84969 57.670775-14.1512 80.164386-5.855136 8.342411-14.769156 20.083581-24.841845 32.921624z m-43.488678 96.864656l-37.571745-22.478162-15.00089 15.000891c-7.492721 10.999623-15.00089 15.00089-15.00089 22.49361l52.526289 7.50817zM462.213823 820.9801h419.901332l97.482612-127.468943h-614.866557z m-217.443387-105.052577h44.971773c-7.50817-7.492721-7.50817-15.00089-15.00089-22.493611l-22.493611-7.508169-22.493611 15.00089z m824.817223-487.382164h-67.496281v90.051687H327.23671v-89.974443H192.275045V506.054101c0 15.00089 0 25.537046 1.544891 29.121193s12.359127 20.917822 26.263144 36.057752l44.075736 47.304558h790.412504l27.097386-25.876922c7.492721-7.492721 27.004692-26.402185 31.778404-35.532489 9.423834-12.359127 8.620491-13.595039 16.113212-28.59593v-299.90966zM327.23671 498.561381h164.963444v-74.989002H327.23671z m509.813979 0h165.040689v-74.989002H837.127934z m0 0"  horiz-adv-x="1617" />

    
    <glyph glyph-name="shipin" unicode="&#58930;" d="M777.301333 360.334222l-336.696889-240.924444c-19.342222-13.795556-46.193778-0.056889-46.193777 23.637333V624.952889c0 23.694222 26.851556 37.432889 46.193777 23.637333l336.696889-240.924444c16.213333-11.662222 16.213333-35.726222 0-47.331556M1310.663111 754.972444a53.617778 53.617778 0 0 1-53.134222 1.28 26.680889 26.680889 0 0 1-2.986667-1.905777L1097.955556 638.919111V813.084444A83.114667 83.114667 0 0 1 1014.869333 896H83.057778A83.114667 83.114667 0 0 1 0 813.084444v-858.168888A83.114667 83.114667 0 0 1 83.086222-128h931.783111a83.114667 83.114667 0 0 1 83.057778 82.915556v174.165333l156.615111-115.484445a26.680889 26.680889 0 0 1 2.986667-1.877333 53.617778 53.617778 0 0 1 53.105778 1.28c16.469333 9.784889 26.254222 27.022222 26.254222 46.165333V708.835556c0 19.114667-9.784889 36.352-26.225778 46.136888"  horiz-adv-x="1336" />

    
    <glyph glyph-name="haishi" unicode="&#58889;" d="M1014.4 25.6c-12.8 6.4-25.6 6.4-38.4 0-6.4-6.4-12.8-12.8-25.6-19.2-32-19.2-70.4-32-108.8-32l160 396.8v25.6c-6.4 6.4-12.8 12.8-19.2 12.8L880 448V691.2c0 19.2-12.8 32-32 32h-115.2V825.6c0 19.2-12.8 32-32 32H361.6c-19.2 0-32-12.8-32-32v-108.8H214.4c-12.8 6.4-25.6-12.8-25.6-25.6V448l-108.8-38.4c-6.4 0-12.8-6.4-12.8-12.8-6.4-12.8-6.4-19.2 0-25.6l153.6-384c-38.4 0-76.8 12.8-115.2 32-32 19.2-51.2 32-51.2 38.4-12.8 12.8-32 12.8-44.8 0-12.8-12.8-12.8-32 0-44.8 6.4-6.4 89.6-89.6 217.6-89.6h38.4c51.2 0 96 12.8 128 25.6 38.4 12.8 76.8 19.2 121.6 19.2s89.6-12.8 134.4-25.6c57.6-12.8 115.2-32 185.6-32 89.6 0 153.6 38.4 185.6 70.4 12.8 12.8 6.4 32-6.4 44.8zM393.6 800h281.6v-76.8H393.6V800zM246.4 614.4v44.8h576v-192L547.2 563.2h-6.4-6.4-6.4L246.4 467.2V614.4z m134.4-608c-32-6.4-64-19.2-102.4-19.2L131.2 364.8l371.2 128v-460.8c-44.8 0-83.2-12.8-121.6-25.6z m185.6 19.2V492.8l371.2-128-153.6-390.4c-38.4 6.4-76.8 12.8-115.2 25.6-38.4 6.4-70.4 19.2-102.4 25.6z"  horiz-adv-x="1027" />

    
    <glyph glyph-name="luduan" unicode="&#59115;" d="M322.56 537.6L356.096 872.96A25.6 25.6 0 0 0 381.5424 896H460.8v-102.4h102.4V896h79.2576a25.6 25.6 0 0 0 25.4464-23.04L701.44 537.6H870.4l51.2-102.4h-209.92l10.24-102.4H972.8l51.2-102.4h-291.84l33.024-330.24a25.6 25.6 0 0 0-25.4464-28.16H563.2v204.8H460.8v-204.8H284.2624a25.6 25.6 0 0 0-25.4464 28.16L291.84 230.4H0l51.2 102.4h250.88l10.24 102.4H102.4l51.2 102.4h168.96zM460.8 691.2v-204.8h102.4V691.2H460.8z m0-307.2v-204.8h102.4v204.8H460.8z"  horiz-adv-x="1024" />

    
    <glyph glyph-name="luduanpaihang" unicode="&#58907;" d="M631.466667 249.173333c-29.013333 0-51.2-22.186667-51.2-51.2v-204.8c0-27.306667 22.186667-51.2 51.2-51.2s51.2 23.893333 51.2 51.2v204.8c0 29.013333-22.186667 51.2-51.2 51.2zM972.8 385.706667c-29.013333 0-51.2-22.186667-51.2-51.2v-341.333334c0-27.306667 22.186667-51.2 51.2-51.2s51.2 23.893333 51.2 51.2v341.333334c0 29.013333-22.186667 51.2-51.2 51.2zM802.133333 334.506667c-29.013333 0-51.2-22.186667-51.2-51.2v-290.133334c0-27.306667 22.186667-51.2 51.2-51.2s51.2 23.893333 51.2 51.2v290.133334c0 29.013333-22.186667 51.2-51.2 51.2zM822.613333 384L709.973333 802.133333c-5.12 17.066667-22.186667 27.306667-37.546666 22.186667H453.973333c15.36-1.706667 27.306667-15.36 27.306667-30.72v-133.12c0-17.066667-13.653333-30.72-30.72-30.72s-30.72 13.653333-30.72 30.72V795.306667c0 15.36 11.946667 29.013333 27.306667 30.72H230.4c-15.36 3.413333-30.72-6.826667-35.84-23.893334L1.706667 90.453333c-5.12-17.066667 5.12-34.133333 22.186666-39.253333h5.12v-1.706667h523.946667v157.013334c0 44.373333 35.84 80.213333 80.213333 80.213333 34.133333 0 63.146667-20.48 75.093334-51.2v52.906667c0 52.906667 42.666667 95.573333 95.573333 95.573333 5.12 1.706667 11.946667 1.706667 18.773333 0zM479.573333 80.213333c0-17.066667-13.653333-30.72-30.72-30.72s-30.72 13.653333-30.72 30.72V213.333333c0 17.066667 13.653333 30.72 30.72 30.72s30.72-13.653333 30.72-30.72v-133.12z m0 290.133334c0-17.066667-13.653333-30.72-30.72-30.72s-30.72 13.653333-30.72 30.72V503.466667c0 17.066667 13.653333 30.72 30.72 30.72s30.72-13.653333 30.72-30.72v-133.12z"  horiz-adv-x="1024" />

    
    <glyph glyph-name="fenpeirenwu" unicode="&#58983;" d="M727.2 805.6h-67.5V837.3C659.7 869.6 633.3 896 601 896H424.2c-32.3 0-58.7-26.4-58.7-58.7v-31.7h-68.7v-157.9h430.4V805.6zM512.9 722c-26.8 0-48.4 21.5-48.4 48.4s21.5 48.4 48.4 48.4c26.8 0 48.4-21.5 48.4-48.4-0.1-30.8-21.6-48.4-48.4-48.4zM903.1 755.1H801.4v-180.6H219.3V755.1H121c-21.7 0-39.3-17.6-39.3-39.3v-803.3c0-21.7 17.6-39.3 39.3-39.3h782.1c21.7 0 39.3 17.6 39.3 39.3V715.7c0 21.8-17.6 39.4-39.3 39.4zM742.2 254.8l-118-134.6c-5.9-6.9-13.8-10.7-22.7-10.7-16.8 0-30.5 14.8-30.5 32.4v52H432.4c-7.9 0-14.8 6.9-14.8 14.8V261c0 1 0 2-1 3l-82.4-98.5c-1-2-1-4.9 0-5.9l82.4-105c0 1 1 1 1 2v53.9c0 7.9 6.9 14.8 14.8 14.8h72.5c7.9 0 22-8.6 22-23.7 0-14.6-13.3-22.7-22-22.7H463l-2-51c0-7.9-5.5-23.2-10.4-27.4-5.9-6.9-13.1-10.6-25.2-10.4-8.9 0.2-20.6 8.2-25.5 15.1L282.9 137c-10.7 12.8-10.7 31.5 0 44.3l117 134.6c5.9 6.9 20.8 14.8 29.7 14.8 16.8 0 31.7-10.2 31.7-28v-62.9l136.1-0.5c15.4 0 14.8-11.9 14.8-22.7l-1-44 87.3 98.2c1 2 1 6.5 0 7.6l-86.2 99c0-1-1-1-1-2v-37.9c0-7.9-6.9-14.8-14.8-14.8h-75.7c-7.9 0-19.8 8.7-20.6 20.6-1.2 16.1 11.7 24.7 20.6 24.7h46.5v42c0 7.9 4.4 17.3 9.2 24.2 5.9 6.9 12.4 10.6 21.3 10.6s20.3-5.4 26.3-12.2l118-134.6c10.8-10.7 10.8-30.5 0.1-43.2z"  horiz-adv-x="1024" />

    
    <glyph glyph-name="qizhi" unicode="&#58886;" d="M199.056832 895.999555A36.552332 36.552332 0 0 1 162.5045 859.447223v-950.894891a36.596854 36.596854 0 0 1 73.149185 0V859.447223A36.552332 36.552332 0 0 1 199.056832 895.999555z m645.253284-334.758811L364.766673 861.005483a36.596854 36.596854 0 0 1-56.008324-31.165204v-599.217826a36.552332 36.552332 0 0 1 56.008324-31.165204l479.543443 299.764739a36.463288 36.463288 0 0 1 0.044522 62.018756z"  horiz-adv-x="1024" />

    
    <glyph glyph-name="daohang" unicode="&#58906;" d="M511.929528 896A408.440166 408.440166 0 0 1 103.489362 487.559834c0-238.256764 278.306591-497.956636 375.424586-601.314689a45.382241 45.382241 0 0 1 66.03116 0C642.063103-10.396802 920.369694 249.30307 920.369694 487.559834A408.440166 408.440166 0 0 1 511.929528 896z m0-589.969129a215.565643 215.565643 0 1 0 215.565643 215.565643 215.565643 215.565643 0 0 0-215.565643-215.565643z"  horiz-adv-x="1024" />

    
    <glyph glyph-name="renyuan_tianjia" unicode="&#58887;" d="M395 763.4c4.8-23-5.3-39.8-21.5-53.7-25.3-21.7-35.4-49.5-37-82.3-1.5-31.4-1.2-62.6 3.2-93.7 2.2-15.2-1.4-29-11-41.3-2.1-2.7-3.2-7.3-2.8-10.9 3.7-31.6 19-57.7 40.2-80.6 24-26 44.7-54.2 57.7-87.3 12.4-31.7 19.6-64.4 14.6-98.5-3.7-25.2-19.1-41.7-43.4-49.6-41.1-13.3-82.9-23.6-125.4-31.7-34.8-6.7-66.6-20.1-93.5-43.9-24.9-22-37.7-49.4-36.2-84h9.6c149.3-0.1 298.7-0.1 448-0.2 5.5 0 11.2 0 16.6-1.3 15.9-3.8 26.2-19.5 24.3-36.3-1.8-15.6-15.3-28-31.3-28.7-2.8-0.1-5.6-0.1-8.3-0.1-156.2 0-312.4-0.1-468.5 0.2-8.9 0-18.3 1.4-26.6 4.5-23.7 9-29.6 29.4-30.5 52-3.3 78.8 33.3 134.4 100 172.8 32.5 18.7 68.3 26.8 104.3 34.9 30.5 6.9 60.6 15.4 90.9 23 5 1.3 5.2 4.1 5.1 8.3-1 41.3-17.7 76.3-44.1 107-18.8 21.9-38.1 43.2-50.9 69.4-10.8 22.1-16.9 45.3-19.4 69.6-1.6 15.9 2.7 30.4 10.6 44.2 1.9 3.4 2.9 8.1 2.4 11.9-5.7 44.5-4.4 88.8 3.1 132.9 5.7 33.1 23.5 59.8 47.4 82.7 3.8 3.6 5.2 7.2 5 12.5-1.6 38.4 22.5 63.4 60.9 64.9 58.1 2.4 115.6-1.1 172.4-13.9 37.4-8.4 73.2-21.1 105.4-42.6 47.7-31.8 72.8-76.1 75.3-133.7 1.5-34.9 3.7-69.6 0-104.5-0.2-2.1-0.1-4.8 1-6.5 16-25.1 13.9-51.7 7.1-79-7.6-30.5-22.4-57.1-42.4-81.2-11.8-14.2-23.4-28.5-34.4-43.3-16.5-22.3-26.5-47.5-31.4-74.7-3.6-20-19.1-31.7-38.4-29-17.9 2.5-30 19.3-27 39.1 6.4 42.1 23.5 79.7 49.8 113.1 12 15.3 24.4 30.3 36.6 45.5 13.6 16.9 21.2 36.6 25.3 57.7 1.4 7.2 0.6 13.7-4.1 20-9.4 12.5-10.6 26.9-8.7 41.9 5.1 39.7 2.7 79.3-2.3 118.7-3.1 24.6-18.2 42.8-37.8 57.2-25.3 18.6-54.5 28.4-84.6 35.5-48.7 11.5-98.3 14.9-148.2 13.8-2 0-4.2-0.5-7.1-0.8zM914.5 109H576c-17.6 0-32 14.3-32 32 0 17.6 14.3 32 32 32h338.6c17.6 0 32-14.3 32-32-0.1-17.7-14.4-32-32.1-32zM713.3-28.3V310.2c0 17.6 14.3 32 32 32 17.6 0 32-14.3 32-32v-338.6c0-17.6-14.3-32-32-32-17.7 0.1-32 14.4-32 32.1z"  horiz-adv-x="1024" />

    
    <glyph glyph-name="fenpei" unicode="&#58885;" d="M953.6 576l-275.2 256v-192H0v-128h678.4v-192zM0 192l275.2 256v-192h678.4v-128H275.2v-192z"  horiz-adv-x="1024" />

    
    <glyph glyph-name="Group" unicode="&#58978;" d="M697.236837 657.860465L960.496124 652.568475c37.926367 0 70.118863-13.229974 96.578811-39.689922s41.453478-60.417323 44.981913-101.870801l-55.565892-43.658915c9.70154 85.554274-23.813953 128.771307-100.547804 129.653747-76.73385 0.882439-159.642129 1.322997-248.723514 1.322997l0.017199 59.534884zM1100.73385 502.297137v-124.005871c0-14.613829-11.846119-26.459948-26.459948-26.459948h-0.097902c-14.559587 0-26.36337 11.80246-26.36337 26.362046l0.001323 0.194481 0.910223 123.909292c0.10584 14.341292 11.760124 25.909581 26.100093 25.909581 14.30954 0 25.909581-11.600041 25.909581-25.909581zM27.253747-127.073902c-14.817571 0-26.459948 11.642377-26.459949 26.459949s11.642377 26.459948 26.459949 26.459948h54.375194v821.581395C81.628941 828.791731 147.778811 894.941602 229.143152 894.941602h323.075969c81.364341 0 147.514212-66.149871 147.514212-147.514212v-94.726615c9.878822-519.849344 9.878822-779.774677 0-779.774677H27.253747zM229.275452 842.286305c-52.258398 0-94.726615-42.468217-94.726615-94.726615v-821.713695h512.529199v821.581395c0 52.258398-42.468217 94.726615-94.726615 94.726615H229.275452v0.1323z m605.800517-607.917313c-14.817571 0-26.459948 11.642377-26.459948 26.459949s11.642377 26.459948 26.459948 26.459948h80.835142c14.817571 0 26.459948-11.642377 26.459948-26.459948s-11.642377-26.459948-26.459948-26.459949h-80.835142z m-565.449096-119.069767c-14.817571 0-26.459948 11.642377-26.459948 26.459948s11.642377 26.459948 26.459948 26.459948H512c14.817571 0 26.459948-11.642377 26.459948-26.459948s-11.642377-26.459948-26.459948-26.459948H269.626873zM835.075969 384c-14.817571 0-26.459948 11.642377-26.459948 26.459948s11.642377 26.459948 26.459948 26.459949h80.835142c14.817571 0 26.459948-11.642377 26.459948-26.459949s-11.642377-26.459948-26.459948-26.459948h-80.835142z m-565.449096-26.459948c-14.817571 0-26.459948 11.642377-26.459948 26.459948s11.642377 26.459948 26.459948 26.459948H512c14.817571 0 26.459948-11.642377 26.459948-26.459948s-11.642377-26.459948-26.459948-26.459948H269.626873z m0 242.373126c-14.817571 0-26.459948 11.642377-26.459948 26.459949s11.642377 26.459948 26.459948 26.459948H512c14.817571 0 26.459948-11.642377 26.459948-26.459948s-11.642377-26.459948-26.459948-26.459949H269.626873zM699.865633-73.757106h60.857881c14.613829 0 26.459948-11.846119 26.459949-26.459948v-1.013416c0-14.613829-11.846119-26.459948-26.459949-26.459949l-0.308258 0.001323-60.857881 0.707804C685.065261-126.811948 673.405685-115.016103 673.405685-100.521344V-100.217054c0 14.613829 11.846119 26.459948 26.459948 26.459948zM1150.762997 11.151545H892.261209c-17.847235 0-32.312889 13.693023-32.312889 30.582408 0 16.890708 14.466977 30.582408 32.312889 30.582409h258.500465c17.847235 0 32.312889-13.693023 32.312889-30.582409 0-16.890708-14.465654-30.582408-32.311566-30.582408zM1019.782284-121.365168c-16.890708 0-30.583731 14.466977-30.583731 32.312889V169.255028c0 17.845912 13.693023 32.312889 30.583731 32.312889 16.889385 0 30.582408-14.466977 30.582409-32.312889v-258.307307c0-17.847235-13.693023-32.312889-30.582409-32.312889z"  horiz-adv-x="1184" />

    
    <glyph glyph-name="zhongdianguanzhuluduan" unicode="&#59571;" d="M568.905143 668.452571V896H455.094857v-227.547429h113.810286z m0-398.189714V554.715429H455.094857v-284.525715h113.810286z m0-398.262857v284.452571H455.094857V-128h113.810286z m-455.094857 0l146.285714 1024H146.285714L0-128h113.810286z m650.093714 1024l146.285714-1024H1024L877.714286 896h-113.810286z"  horiz-adv-x="1024" />

    
    <glyph glyph-name="luzhengluchan" unicode="&#59503;" d="M160 192c17.6 0 32 14.4 32 32s-14.4 32-32 32h-64c-17.6 0-32-14.4-32-32s14.4-32 32-32h64zM352 64c-17.6 0-32-14.4-32-32v-64c0-17.6 14.4-32 32-32s32 14.4 32 32v64c0 17.6-14.4 32-32 32zM448 384H0v-64h416c17.6 0 32-14.4 32-32v-416h64V320c0 35.2-28.8 64-64 64zM352 256h-64c-17.6 0-32-14.4-32-32s14.4-32 32-32h32v-32c0-17.6 14.4-32 32-32s32 14.4 32 32v64c0 17.6-14.4 32-32 32zM192 128H0v-64h160c17.6 0 32-14.4 32-32v-160h64v192c0 35.2-28.8 64-64 64zM960 896H512c-35.2 0-64-28.8-64-64v-320c0-35.2 28.8-64 64-64h192v-288c0-17.6 14.4-32 32-32s32 14.4 32 32V448h192c35.2 0 64 28.8 64 64V832c0 35.2-28.8 64-64 64z m0-352c0-17.6-14.4-32-32-32H544c-17.6 0-32 14.4-32 32V800c0 17.6 14.4 32 32 32h384c17.6 0 32-14.4 32-32v-256z"  horiz-adv-x="1024" />

    
    <glyph glyph-name="chakan" unicode="&#59001;" d="M185.125038-45.421831999999995a112.200983 112.200983 0 0 0-112.200982 112.200982v645.119079c0 61.951911 50.249071 112.200983 112.200982 112.200982h647.313361c61.951911 0 112.200983-50.249071 112.200983-112.200982V242.10232800000006h72.630753v488.593588A165.156335 165.156335 0 0 1 852.1138 895.998537H165.449638A165.156335 165.156335 0 0 1 0.293302 730.842202v-686.664162a165.156335 165.156335 0 0 1 165.156336-165.229478h488.593588V-45.34869000000003h-468.845045zM1018.513562-78.99435600000004L736.036251 203.33667000000003a290.596156 290.596156 0 1 1-43.446795-43.446796l282.477311-282.47731 43.446795 43.446795zM510.025146 168.00872000000004a217.965403 217.965403 0 1 0 0 435.857663 217.965403 217.965403 0 0 0 0-435.930806z"  horiz-adv-x="1024" />

    
    <glyph glyph-name="xiugai" unicode="&#59081;" d="M334.18467555 330.56995555000003c-0.58254222-0.74638222-1.18784-1.56216889-1.44497777-2.54065777l-45.71704889-168.86784c-2.65671111-9.83267555 0.06940445-20.45838222 7.29315556-27.91537778 5.40558222-5.28952889 12.53603555-8.22499555 20.10908444-8.22499555 2.51676445 0 5.03352889 0.30264889 7.50364444 0.97848888l166.46712889 45.71818667c0.256 0 0.37205333-0.256 0.55864889-0.256 1.93422222 0 3.79904 0.72248889 5.22012444 2.19022222L939.23555555 619.97511111c13.23463111 13.32906667 20.48227555 31.50392889 20.48227556 51.26371556 0 22.36871111-9.43786667 44.78634667-25.93564444 61.37628444l-42.0352 42.40952889c-16.49777778 16.63772445-38.75157333 26.14385778-60.93482667 26.14385778-19.61984 0-37.632-7.29315555-50.93717333-20.59832889L334.83776 332.10709333c-0.46648889-0.41984-0.30378667-1.04903111-0.65308445-1.53827555z m561.50129778 333.33020445l-44.20266666-44.50645333-71.67658667 73.35367111 43.59736889 43.87726222c6.87331555 6.96661333 20.27178667 5.96536889 28.14862222-2.00362667l42.0352-42.43342222c4.40433778-4.44984889 6.92110222-10.29916445 6.92110222-16.10069333-0.02275555-4.77752889-1.74762667-9.08743111-4.82417778-12.18673778zM413.34101333 323.50890667L734.48448 647.0997333299999l71.67658667-73.42421333-320.51541334-322.91498667-72.30577778 72.74837334m-58.53297777-131.16529778l23.20839111 85.82030222 61.88942222-62.35591111-85.09781333-23.46439111m569.07320889 293.88117333c-16.86983111 0-30.68814222-13.81831111-30.73479112-30.99192889v-371.38204444c0-59.11665778-58.39416889-86.30954667-86.05240888-86.30954667H198.42844445c-38.79822222 0-79.04028445 38.35448889-86.10019556 109.61123556V672.87153778c0 88.52252445 64.33564445 86.35505778 86.10019556 86.35505777h405.44938666c16.91648 0 30.66424889 13.86496 30.66424889 30.92138667 0 17.03367111-13.74776889 30.92138667-30.66424889 30.92138667H193.76924445c-53.05799111 0-142.81614222-33.25155555-142.81614223-120.23580444V102.42275555000003c0-116.99768889 73.16707555-166.81756445 142.81614223-166.81756444h617.984c78.52600889 0 142.83889778 49.12014222 142.83889777 143.51587556V455.39555555c-0.11605333 17.01091555-13.91047111 30.82922667-30.71203555 30.82922667z"  horiz-adv-x="1024" />

    
    <glyph glyph-name="zhidinghangzhengquyu" unicode="&#58928;" d="M649.047341 324.969412l-128.301176 48.911059 12.288-225.882353-135.649883-206.848L76.571106 430.441412a340.148706 340.148706 0 1 0 641.566118 0L649.107576 324.969412zM402.986165 430.381176a141.733647 141.733647 0 1 1 0 283.467295 141.733647 141.733647 0 0 1 0-283.407059zM558.031812 324.065882l23.913412-442.247529 147.998117 215.521882 236.42353 70.957177z"  horiz-adv-x="1024" />

    
    <glyph glyph-name="shanchu" unicode="&#58995;" d="M950.832 714.6030000000001H73.124a28.742 28.742 0 0 0 0 57.485h877.708a28.742 28.742 0 0 0 0-57.485zM667.68 829.617H356.231a28.52 28.52 0 0 0-28.297 28.742A28.609 28.609 0 0 0 356.32 887.101h311.449a28.564 28.564 0 0 0 28.297-28.742 28.52 28.52 0 0 0-28.297-28.742zM384.662 82.13900000000001V570.847a28.342 28.342 0 1 0 56.64 0V82.13999999999999a28.342 28.342 0 1 0-56.64 0z m198.215 0V570.847a28.342 28.342 0 1 0 56.64 0V82.13999999999999a28.342 28.342 0 1 0-56.64 0zM186.402 628.376a28.564 28.564 0 0 0 28.298-28.742v-603.766a57.129 57.129 0 0 1 56.639-57.485h481.278a57.084 57.084 0 0 1 56.639 57.485V599.5889999999999a28.342 28.342 0 1 0 56.64 0v-632.464a85.604 85.604 0 0 0-84.937-86.226H243.04a85.604 85.604 0 0 0-84.936 86.226V599.5899999999999a28.564 28.564 0 0 0 28.297 28.743z"  horiz-adv-x="1024" />

    
    <glyph glyph-name="anquanjiankong-xuanzhong" unicode="&#59045;" d="M512 500.4c-55.3 0-114.6-35.3-157.7-93.1 43.1-57.8 102.4-93.1 157.7-93.1 55.3 0 114.6 35.3 157.7 93.1-43.1 57.8-102.4 93.1-157.7 93.1z m23.3-162.9c-38.6 0-69.8 31.3-69.8 69.8s31.3 69.8 69.8 69.8c21.1 0 40-9.3 52.8-24.1-2 0.6-4.1 0.8-6.2 0.8-12.9 0-23.3-10.4-23.3-23.3s10.4-23.3 23.3-23.3c9.9 0 18.3 6.2 21.7 14.8 1-4.8 1.6-9.7 1.6-14.8-0.1-38.5-31.4-69.7-69.9-69.7zM896.6 696L524.5 835.5c-1.4 0.5-2.8 1-4.3 1.3h-0.1c-2.7 0.7-5.4 1-8.1 1-2.8 0-5.6-0.3-8.4-1-1.4-0.3-2.7-0.8-4-1.2L127.4 696c-13.6-5.1-22.7-18.1-22.7-32.7l0.2-376.2c16.9-151.8 148.8-286.4 392-400 0.5-0.2 0.9-0.5 1.4-0.6 4.4-1.9 9-2.8 13.6-2.8 4.7 0 9.5 1 14 3 0.3 0.1 0.6 0.3 0.9 0.4C770.1 0.7000000000000455 902.1 135.29999999999995 919.1 291V663.3c0.2 14.5-8.9 27.5-22.5 32.7zM717.5 394.4C664.6 315 587.8 267.6 512 267.6c-75.8 0-152.6 47.4-205.5 126.7-5.2 7.8-5.2 18 0 25.8 52.9 79.4 129.7 126.7 205.5 126.7 75.8 0 152.6-47.4 205.5-126.7 5.3-7.7 5.3-17.9 0-25.7z"  horiz-adv-x="1024" />

    
    <glyph glyph-name="tubiao_fenshu" unicode="&#58971;" d="M640 15.039999999999964l248.896 248.896 40.704-40.768-248.896-248.896zM621.44 120.38400000000001l81.472-81.408-40.704-40.768-81.472 81.472zM505.6 153.60000000000002c57.6 115.2 230.4 57.6 230.4 57.6l57.6 57.6V665.6c0 70.4-57.6 128-128 128h-448c-70.4 0-128-57.6-128-128v-563.2c0-70.4 57.6-128 128-128h262.4c0 57.6 0 128 25.6 179.2zM268.8 620.8h352v-57.6H268.8v57.6z m0-179.2h352V384H268.8v57.6z m121.6-230.4H268.8v57.6H384v-57.6z"  horiz-adv-x="1024" />

    
    <glyph glyph-name="fankui" unicode="&#58883;" d="M627.2 0c-19.2-32-32-64-32-102.4 0-12.8 12.8-25.6 25.6-25.6h6.4c38.4 0 70.4 12.8 96 32L896 89.60000000000002l-102.4 89.6L627.2 0z m345.6 249.6l-25.6 25.6c-19.2 19.2-51.2 19.2-70.4 0l-32-32 102.4-89.6 25.6 25.6c25.6 19.2 25.6 51.2 0 70.4zM864 448V768c0 32-6.4 64-32 89.6C806.4 876.8 768 896 736 896H160c-38.4 0-70.4-19.2-96-38.4C44.8 832 32 800 32 768v-704c0-70.4 57.6-128 128-128h256c32 0 64 44.8 83.2 70.4L832 364.79999999999995c25.6 19.2 32 51.2 32 83.2zM480 128H160v64h320v-64z m128 256H160v64h448v-64z m128 256H160v64h576v-64z"  horiz-adv-x="1024" />

    
    <glyph glyph-name="renwu" unicode="&#58905;" d="M898.56 727.04h-138.24v-153.6h-512v153.6H125.44c-17.92 0-30.72-17.92-30.72-35.84v-762.88c0-20.48 15.36-35.84 33.28-35.84h765.44c17.92 0 33.28 15.36 33.28 35.84V691.2c0 20.48-15.36 35.84-33.28 35.84h5.12z m-125.44-302.08L473.6 56.32000000000005c2.56-5.12-5.12-5.12-10.24-2.56l-217.6 179.2c-5.12 2.56-5.12 10.24-2.56 15.36l35.84 46.08c2.56 5.12 10.24 5.12 15.36 2.56l163.84-138.24 256 317.44c2.56 7.68 10.24 7.68 15.36 2.56l40.96-35.84c7.68-2.56 10.24-7.68 2.56-17.92zM634.88 773.12V803.84c0 28.16-25.6 46.08-53.76 46.08h-156.16c-28.16 0-53.76-17.92-53.76-46.08v-30.72h-61.44v-153.6h386.56v153.6h-61.44z m-130.56-92.16c-30.72 0-56.32 25.6-56.32 56.32 0 30.72 25.6 56.32 56.32 56.32 30.72 0 56.32-25.6 56.32-56.32 0-35.84-25.6-56.32-56.32-56.32z m0 0"  horiz-adv-x="1024" />

    
    <glyph glyph-name="gongsi" unicode="&#59501;" d="M0 793.6v-921.6h665.6V793.6l-153.6 102.4z m384-808.96h-307.2V76.79999999999995l307.2 5.12z m0 204.8l-307.2-5.12v92.16l307.2 20.48z m0 220.16l-307.2-20.48V481.28l307.2 35.84z m0 225.28l-307.2-40.96V691.2l307.2 61.44zM921.6-25.600000000000023V793.6l-153.6 102.4h-76.8L768 844.8v-972.8h256v102.4h-102.4z"  horiz-adv-x="1024" />

    
    <glyph glyph-name="zhixingyichang" unicode="&#59224;" d="M854.747 13.143000000000029c91.763 0.069 129.253 65.104 83.322 144.538l-352.057 608.749c-45.932 79.436-121.01 79.385-166.846-0.117l-351.157-609.247c-45.831-79.518-8.242-144.506 83.521-144.436l703.214 0.516zM503.606 613.9c36.705 0 64.169-75.045 60.997-166.741v-0.199c-3.153-91.713-6.724-166.741-7.94-166.741s-24.126 0-50.921 0c-26.795 0-50.972 0-53.738 0-2.77 0-7.308 75.045-10.08 166.778v0.149c-2.784 91.716 24.975 166.759 61.682 166.759v0zM441.04 173.85000000000002c0 35.723 28.947 64.65 64.65 64.65s64.65-28.93 64.65-64.65c0-35.723-28.947-64.65-64.65-64.65-35.706 0-64.65 28.93-64.65 64.65v0z"  horiz-adv-x="1024" />

    
    <glyph glyph-name="fangdajing" unicode="&#58935;" d="M921.3 22L738.1 205.20000000000005c51.3 62.6 82.1 142.5 82.1 229.6 0 200.1-162.8 363-363 363-200.1 0-363-162.8-363-363s162.8-363 363-363c87 0 167 30.8 229.6 82.1L870-29.299999999999955c7.1-7.1 16.4-10.6 25.7-10.6s18.6 3.5 25.7 10.6c14.1 14.2 14.1 37.2-0.1 51.3zM166.8 434.8c0 160.1 130.3 290.4 290.4 290.4s290.4-130.3 290.4-290.4-130.3-290.4-290.4-290.4-290.4 130.3-290.4 290.4z"  horiz-adv-x="1024" />

    
    <glyph glyph-name="schedule" unicode="&#59044;" d="M805.547 732.16h-51.2V773.12h-68.2667v-40.96H546.133V773.12h-68.2667v-40.96h-133.12V773.12h-68.2667v-40.96H218.453C174.08 732.16 136.533 694.613 136.533 646.827V110.93299999999999c0-44.3733 37.5467-81.92 81.92-81.92h583.68c44.3733 0 81.92 37.5467 81.92 81.92V646.827c3.41333 47.7867-34.1333 85.3333-78.5067 85.3333ZM385.707 192.85299999999995H303.787v208.213h81.92v-208.213Zm167.253 0h-81.92v290.133h81.92v-290.133Zm167.253 0h-81.92V564.9069999999999h81.92v-372.053Z"  horiz-adv-x="1024" />

    
    <glyph glyph-name="yanghu" unicode="&#59006;" d="M373.2 569c42.4-6.1 89.6-16.7 139.3-16.7 49.7 0 96.9 10.7 139.3 16.7 6.7 1 10.5 8.1 7.6 14.2L577.2 775c-26 54.3-103.3 54.3-129.3 0l-82.2-191.8c-3-6.1 0.8-13.3 7.5-14.2zM512.5 125C697.2 125 807 170.70000000000005 807 227c0 8.4-3.3 16.5-9.6 24.3l-83.3 216.6c-2 4.1-6.4 6.3-10.9 5.5-55.9-10.5-115.4-25.4-190.7-25.4s-134.9 14.9-190.8 25.4c-4.5 0.8-8.9-1.4-10.9-5.5l-83.3-216.6c-6.2-7.8-9.6-15.9-9.6-24.3 0.1-56.3 109.8-102 294.6-102zM944.5 323h-32.9c-41.9 0-69.4-43.7-51.3-81.5l42.1-88c1.4-3 3.1-5.9 5-8.6 5.9-8.4 9.1-17 9.1-25.9 0-67.4-179.1-122-399.9-122s-399.9 54.6-399.9 122c0 8.9 3.1 17.6 9.1 25.9 1.9 2.7 3.6 5.6 5 8.6l42.1 88c18.1 37.8-9.5 81.5-51.3 81.5H80.5c-11 0-20-9-20-20v-314.1c0-31.4 25.5-56.9 56.9-56.9h790.1c31.4 0 56.9 25.5 56.9 56.9V303c0.1 11-8.9 20-19.9 20z"  horiz-adv-x="1024" />

    
    <glyph glyph-name="qiyexinxi" unicode="&#58965;" d="M665.6 76.79999999999995h102.4V460.8a25.6 25.6 0 0 0 25.6 25.6h102.4a25.6 25.6 0 0 0 25.6-25.6V76.79999999999995h102.4v-204.8H0v204.8h102.4V844.8a51.2 51.2 0 0 0 51.2 51.2h460.8a51.2 51.2 0 0 0 51.2-51.2v-768zM204.8 691.2v-512h153.6V691.2H204.8z m256-204.8v-307.2h102.4V486.4H460.8z"  horiz-adv-x="1024" />

    
    <glyph glyph-name="ft-guardrail" unicode="&#59180;" d="M96-32H32c-19.2 0-32 12.8-32 32V768c0 19.2 12.8 32 32 32h64c19.2 0 32-12.8 32-32v-768c0-19.2-12.8-32-32-32zM992-32h-64c-19.2 0-32 12.8-32 32V768c0 19.2 12.8 32 32 32h64c19.2 0 32-12.8 32-32v-768c0-19.2-12.8-32-32-32zM96 192h832v-160H96zM96 672h832v-96H96zM176 608h96v-451.2h-96zM320 608h96v-451.2h-96zM464 608h96v-451.2h-96zM608 608h96v-451.2h-96zM752 608h96v-451.2h-96z"  horiz-adv-x="1024" />

    
    <glyph glyph-name="biaopaishezhi" unicode="&#59012;" d="M1211.245714 896H105.325714C47.177143 896 0 842.020571 0 775.533714v-783.067428C0-74.09371399999998 47.177143-128 105.325714-128h1105.92c58.221714 0 105.325714 53.979429 105.325715 120.466286V775.533714C1316.571429 842.093714 1269.467429 896 1211.245714 896zM365.714286 234.642286c0-38.692571-21.942857-70.070857-49.152-70.070857H195.437714C168.374857 164.57142899999997 146.285714 196.02285700000004 146.285714 234.642286V533.357714C146.285714 572.050286 168.374857 603.4285709999999 195.437714 603.4285709999999h121.124572C343.771429 603.4285709999999 365.714286 571.9771430000001 365.714286 533.357714v-298.715428z m438.857143 0c0-38.692571-29.257143-70.070857-65.536-70.070857H577.536C541.403429 164.57142899999997 512 196.02285700000004 512 234.642286V533.357714C512 572.050286 541.403429 603.4285709999999 577.536 603.4285709999999h161.499429c36.205714 0 65.536-31.451429 65.536-70.070857v-298.715428z m365.714285 0c0-38.692571-21.942857-70.070857-49.152-70.070857h-121.124571c-27.136 0-49.152 31.451429-49.152 70.070857V533.357714c0 38.692571 21.942857 70.070857 49.152 70.070857h121.124571c27.136 0 49.152-31.451429 49.152-70.070857v-298.715428z"  horiz-adv-x="1316" />

    
    <glyph glyph-name="xiandao" unicode="&#59223;" d="M162.743757 689.408c7.424 22.016 14.592 39.424 21.504 52.224 6.912 12.8 14.08 22.272 22.016 28.416 7.936 6.4 16.64 10.24 26.624 12.032 9.728 1.792 21.76 3.072 35.84 3.84h125.952c2.56 0 4.608-2.304 4.096-4.864l-129.536-792.064c-0.256-2.048-2.048-3.584-4.096-3.584h-168.96c-46.592 0-76.288 15.872-88.576 47.872-12.544 31.744-9.472 77.056 8.448 135.68 6.144 19.2 13.056 43.008 21.504 71.936 8.192 28.928 17.152 60.16 26.624 93.44 9.728 34.304 19.2 68.864 28.16 103.424 9.472 35.584 18.688 69.376 27.648 101.632 9.216 32.256 17.152 61.44 24.32 87.296 6.912 26.624 13.056 47.104 18.432 62.72zM545.207757 650.752h-73.472c-2.304 0-4.352 2.048-4.096 4.352l6.4 125.696c0 2.304 2.048 4.096 4.096 4.096H537.783757c2.304 0 4.096-1.792 4.096-3.84l7.424-125.696c0.256-2.56-1.792-4.608-4.096-4.608zM560.823757 316.672h-104.96c-2.304 0-4.352 2.048-4.096 4.352l12.032 258.816c0 2.304 2.048 4.096 4.096 4.096h80.896c2.304 0 4.096-1.792 4.096-4.096l12.032-258.816c0.256-2.304-1.536-4.352-4.096-4.352zM567.735757 245.50400000000002l12.032-258.816c0-2.304-1.792-4.352-4.096-4.352h-135.424c-2.304 0-4.352 2.048-4.096 4.352l12.032 258.816c0 2.304 2.048 4.096 4.096 4.096h111.36c2.048 0 4.096-1.792 4.096-4.096zM925.367757 315.648c11.52 0 23.04-0.512 34.56-1.536 2.816-0.256 5.12 2.304 4.352 5.12-6.912 28.416-14.336 58.368-22.016 89.6-9.472 38.144-18.688 74.752-27.648 109.824l-24.832 94.464c-6.656 27.904-12.288 48.384-16.896 61.696-13.568 41.728-33.024 70.912-58.624 86.784-25.6 16.128-57.088 24.32-94.72 24.32h-100.864c-2.56 0-4.608-2.304-4.096-4.864l87.04-528.896c0.512-3.072 3.84-4.608 6.4-2.816 62.208 41.728 136.96 66.304 217.344 66.304zM1024.183757-29.18399999999997h-43.776l-62.208 109.824c-1.536 2.56-3.584 7.424-6.4 15.104h-1.024c-0.256-1.024-2.304-6.144-6.4-15.36l-64-109.824h-43.776l92.672 146.688-85.248 145.408h44.032l55.04-101.12c3.328-5.888 6.4-12.8 9.728-20.736h0.768c2.816 6.912 6.4 14.08 10.496 21.76l57.6 100.096h41.216l-87.04-144.64 88.32-147.2z"  horiz-adv-x="1024" />

    
    <glyph glyph-name="qiaoliang" unicode="&#58984;" d="M974 640c27.6 0 50 22.4 50 50s-22.4 50-50 50H50c-27.6 0-50-22.4-50-50s22.4-50 50-50h28.5v-157.5H39.2C17.8 482.5 0.5 465.2 0.5 443.8v-437.5c0-21.4 17.3-38.7 38.7-38.7h54.5C127.1 168.10000000000002 301.4 321 511.5 321s384.3-152.9 417.8-353.4h55.6c21.4 0 38.7 17.3 38.7 38.7V443.9c0 21.4-17.3 38.7-38.7 38.7h-39.3V640H974z m-412 0h91.8v-157.5H562V640zM462 482.5h-91.8V640H462v-157.5z m-283.5 0V640h91.8v-157.5h-91.8z m667 0h-91.8V640h91.8v-157.5z"  horiz-adv-x="1024" />

    
    <glyph glyph-name="dingweiweizhi" unicode="&#58882;" d="M511.99904 896C282.23904 896 95.99904 706.112 95.99904 471.808c0-117.12 46.592-223.104 121.856-299.904L511.99904-128l294.144 299.904A427.072 427.072 0 0 1 927.99904 471.808C927.99904 706.112 741.75904 896 511.99904 896z m0-612.608C409.59904 283.648 326.78304 368 327.03904 471.808v0.128C326.78304 575.6800000000001 409.59904 660.096 511.87104 660.352H511.99904c102.4-0.256 185.216-84.608 184.96-188.416v-0.128c0.32-103.744-82.432-188.16-184.768-188.48H511.99904v0.064z"  horiz-adv-x="1024" />

    
    <glyph glyph-name="tongji" unicode="&#58881;" d="M166.107955 267.34305300000005c-15.830221 0-30.836531 3.001344-45.027328 9.00608-14.190797 5.999616-26.471014 14.186086-36.84055 24.559309-10.369638 10.368102-18.556416 22.647808-24.560333 36.839014-6.004019 14.190182-9.00649 29.195981-9.00649 45.025485 0 15.824384 3.00247 30.699213 9.00649 44.61312 6.004019 13.919027 14.190797 26.062541 24.560333 36.43177 10.369638 10.369126 22.649754 18.555597 36.84055 24.559309 14.190797 6.003712 29.19721 9.00608 45.027328 9.00608 3.273728 0 6.276198-0.140186 9.00649-0.412365 2.726195-0.271155 5.456486-0.407245 8.186778-0.407245l159.642419 193.201254c-2.730291 5.456282-4.505805 11.459994-5.325517 18.007142-0.814592 6.552269-1.226957 13.371494-1.226957 20.466074 0 15.829504 3.00247 30.835302 9.00649 45.025485 6.004019 14.190182 14.190797 26.469888 24.560333 36.839014s22.649754 18.555597 36.84055 24.559309c14.190797 6.003712 29.201306 9.00608 45.027328 9.00608 15.826125 0 30.836531-3.002368 45.027328-9.00608s26.471014-14.190182 36.84055-24.559309c10.369638-10.369126 18.556416-22.648832 24.560333-36.839014 6.004019-14.190182 9.00649-29.200077 9.00649-45.025485 0-13.099315-2.046669-25.514086-6.140109-37.246259-4.09344-11.736269-9.690112-22.784922-16.786022-33.158144L682.69568 348.38794199999995l79.408845 141.623501c-6.004019 9.278362-10.912973 19.511398-14.734131 30.699213-3.822182 11.188838-5.732762 23.061197-5.732762 35.612058 0 15.829504 3.00247 30.835302 9.00649 45.025485 6.004019 14.190182 14.190797 26.469888 24.560333 36.839014 10.369638 10.369126 22.649754 18.555597 36.84055 24.559309 14.190797 6.003712 29.201306 9.00608 45.027328 9.00608 15.826125 0 30.836531-3.002368 45.027328-9.00608 14.190797-6.003712 26.607104-14.190182 37.247898-24.559309 10.645914-10.369126 18.968781-22.648832 24.9728-36.839014 6.004019-14.190182 9.00649-29.200077 9.00649-45.025485 0-16.372941-3.00247-31.653888-9.00649-45.845094-6.004019-14.186086-14.326886-26.605978-24.9728-37.246259-10.640794-10.640384-23.057101-18.966938-37.247898-24.966656-14.194893-6.004736-29.201306-9.00608-45.027328-9.00608l-19.64728 0-77.774541-141.628621c12.007936-10.912563 21.561958-23.739699 28.653773-38.473216 7.094886-14.738637 10.640794-30.835302 10.640794-48.299008 0-15.829504-3.001446-30.839398-9.00649-45.025485-5.999923-14.191206-14.326886-26.605978-24.96768-37.251379-10.640794-10.640384-22.921011-18.962842-36.84055-24.966656-13.919642-6.003712-29.06112-9.00608-45.434675-9.00608s-31.520154 3.002368-45.439795 9.00608c-13.914522 6.003712-26.059571 14.326272-36.428186 24.966656-10.373734 10.645504-18.560512 23.060173-24.560333 37.251379-6.005043 14.186086-9.00649 29.195981-9.00649 45.025485 0 17.463706 3.409818 33.560371 10.233446 48.299008 6.819635 14.733517 16.237466 27.560755 28.241408 38.473216l-140.809728 315.178291c-5.460582-1.090867-9.826202-1.634202-13.09993-1.634202-8.73431 0-17.057178 1.090867-24.96768 3.273523-7.915622 2.182758-15.422874 4.912845-22.513664 8.18647L264.349491 445.80567c5.456486-9.277338 9.821082-19.239219 13.09993-29.879501 3.273728-10.640384 4.908032-21.69303 4.908032-33.153024 0-15.829504-3.001446-30.839398-9.00137-45.025485-6.005043-14.191206-14.326886-26.470912-24.9728-36.839014-10.640794-10.373222-22.921011-18.559693-36.84055-24.559309C197.628211 270.34449900000004 182.481613 267.34305300000005 166.107955 267.34305300000005L166.107955 267.34305300000005zM50.673152 35.66346199999998l922.65364 0 0-111.331621L50.67318-75.66815899999995 50.67318 35.6635 50.673152 35.66346199999998zM50.673152 35.66346199999998"  horiz-adv-x="1024" />

    
    <glyph glyph-name="tupian" unicode="&#58967;" d="M949.5 872.2H75.8C35 872.2 2 839.2 2 798.5v-830.7c0-40.7 33-73.8 73.8-73.8h873.8c40.7 0 73.8 33 73.8 73.8V798.5c-0.1 40.7-33.1 73.7-73.9 73.7zM218.7 732.7c48.9 0 92.1-40.3 92.1-92.1s-40.3-92.1-92.1-92.1c-48.9 0-92.1 40.3-92.1 92.1s43.2 92.1 92.1 92.1zM912 36.5c0-2.9-759.5-2.9-759.5-2.9-8.6 0-17.3 2.9-25.9 8.6-17.3 14.4-17.3 34.5-2.9 51.8l178.4 250.3c14.4 14.4 34.5 17.3 51.8 5.8l155.4-109.3L788.4 540c14.4 14.4 83.4 89.2 123.7 5.8v-509.3z"  horiz-adv-x="1024" />

    
    <glyph glyph-name="tubiaozhizuomoban" unicode="&#59113;" d="M324.1 644.4h393c19.2 0 34.8 15.6 34.8 34.8v52.2c0 19.2-15.6 34.8-34.8 34.8h-71.6c0 1.4 0.2 2.7 0.2 4C645.7 839.7 589.9 896 521.1 896S396.5 839.7 396.5 770.3c0-1.4 0.2-2.7 0.2-4h-72.5c-19.2 0-34.8-15.6-34.8-34.8v-52.2c-0.1-19.3 15.5-34.9 34.7-34.9z m197 197.5c19.7 0 35.7-16.1 35.7-35.9 0-19.8-16-35.9-35.7-35.9-19.7 0-35.7 16.1-35.7 35.9 0 19.8 15.9 35.9 35.7 35.9z m289-123.6h-19.5v-83.5c0-19.2-15.6-34.8-34.8-34.8H285.6c-19.2 0-34.8 15.6-34.8 34.8v83.5h-37c-68.1 0-102.3-37-102.3-109V-19c0-71.9 34.3-109 102.3-109h596.3c68.1 0 102.3 37 102.3 109V609.4c0.1 71.9-34.2 108.9-102.3 108.9zM307.4 414.2H512c24.5 0 40.9-16.7 40.9-41.9 0-25.1-16.4-41.9-40.9-41.9H307.4c-24.5 0-40.9 16.8-40.9 41.9 0 25.1 16.4 41.9 40.9 41.9z m409.2-251.3H307.4c-24.5 0-40.9 16.7-40.9 41.9 0 25.1 16.4 41.9 40.9 41.9h409.1c24.5 0 40.9-16.8 40.9-41.9 0.1-25.1-16.3-41.9-40.8-41.9z"  horiz-adv-x="1024" />

    
    <glyph glyph-name="biji" unicode="&#58880;" d="M526.208 744L701.44 568.96l-409.088-409.152L117.12 334.91200000000003zM753.216 795.264a124.16 124.16 0 0 0 0-175.616l-20.8-20.8-174.72 174.72 21.312 21.248a124.16 124.16 0 0 0 175.552 0zM64 148.48000000000002l23.04 156.8L262.4 128l-158.72-21.76a35.2 35.2 0 0 0-39.68 42.24zM64 19.840000000000032m42.24 0l811.52 0q42.24 0 42.24-42.24l0 0.64q0-42.24-42.24-42.24l-811.52 0q-42.24 0-42.24 42.24l0-0.64q0 42.24 42.24 42.24ZM448 192m42.24 0l427.52 0q42.24 0 42.24-42.24l0 0.64q0-42.24-42.24-42.24l-427.52 0q-42.24 0-42.24 42.24l0-0.64q0 42.24 42.24 42.24Z"  horiz-adv-x="1024" />

    
    <glyph glyph-name="renyuanxiaozu" unicode="&#59026;" d="M960 9.408000000000015c-38.656 0-81.728 0-126.848 0 0 185.92-252.352 296.192-254.976 352.512-2.688 56.384 95.744 109.376 97.728 212.992 2.176 109.568-64.896 156.288-102.848 174.08 17.024 6.144 35.072 9.536 53.888 9.536 96.384 0 174.528-87.232 174.528-194.752 0-79.04-105.728-137.664-105.728-187.136C695.616 327.168 960 196.736 960 9.408000000000015zM468.544 386.496C457.536 361.28 476.352 339.072 476.352 339.072c208.192-140.416 253.824-329.6 253.824-329.6L64 9.47199999999998c0 165.76 232.256 308.544 253.76 329.6C334.848 355.84000000000003 330.88 374.65599999999995 325.312 386.688 264.896 417.28 222.656 484.864 222.656 563.7760000000001c0 107.584 78.144 194.752 174.464 194.752 96.384 0 174.528-87.232 174.528-194.752C571.584 484.736 529.216 417.024 468.544 386.496z"  horiz-adv-x="1024" />

    
    <glyph glyph-name="matou1" unicode="&#58939;" d="M979.2 310.4l-89.6-108.8 35.2-3.2s-115.2-92.8-217.6-99.2c-102.4-6.4-150.4 131.2-150.4 131.2v227.2h137.6v67.2h-131.2V614.4c57.6 19.2 96 73.6 96 137.6 0 80-64 144-144 144H512c-80 0-144-64-144-144 0-64 41.6-118.4 96-137.6v-89.6h-131.2v-67.2h137.6v-227.2s-51.2-134.4-153.6-131.2c-102.4 6.4-217.6 99.2-217.6 99.2l35.2 3.2-92.8 108.8-32-134.4 38.4 9.6s76.8-137.6 195.2-188.8c118.4-54.4 236.8-121.6 262.4-124.8 25.6 3.2 144 70.4 259.2 124.8 115.2 54.4 195.2 188.8 195.2 188.8l38.4-9.6-19.2 134.4zM515.2 672c-44.8 0-80 35.2-80 80 0 41.6 35.2 76.8 76.8 76.8h3.2c41.6 0 76.8-35.2 76.8-76.8 3.2-44.8-35.2-80-76.8-80z"  horiz-adv-x="1024" />

    
    <glyph glyph-name="shebeiguanli" unicode="&#58891;" d="M732.689655 896h-247.172414c-30.013793 0-52.965517-22.951724-52.965517-52.965517v-812.137931h-70.62069v812.137931c0 28.248276-22.951724 52.965517-52.965517 52.965517h-247.172414c-30.013793 0-52.965517-22.951724-52.965517-52.965517v-918.068966c0-28.248276 22.951724-52.965517 52.965517-52.965517h247.172414c30.013793 0 52.965517 22.951724 52.965517 52.965517v35.310345h70.62069v-35.310345c0-28.248276 22.951724-52.965517 52.965517-52.965517h247.172414c30.013793 0 52.965517 22.951724 52.965517 52.965517v918.068966c0 30.013793-22.951724 52.965517-52.965517 52.965517z m-564.965517-935.724138h-70.62069v70.62069h70.62069v-70.62069z m105.931034 776.827586h-176.551724v70.62069h176.551724v-70.62069z m317.793104-776.827586h-70.62069v70.62069h70.62069v-70.62069z m105.931034 776.827586h-176.551724v70.62069h176.551724v-70.62069zM963.972414-128c-28.248276 0-51.2 22.951724-51.2 51.2v921.6c0 28.248276 22.951724 51.2 51.2 51.2 28.248276 0 51.2-22.951724 51.2-51.2v-921.6c0-28.248276-22.951724-51.2-51.2-51.2z"  horiz-adv-x="1024" />

    
    <glyph glyph-name="yuyanshu" unicode="&#58893;" d="M262.6 200.10000000000002l188-76.7c26 0 47 21.1 47 47v321c0 94.2-76.3 170.6-170.6 170.6h-60.1c-24.2 0-43.8-19.6-43.8-43.8v-359.6c0.1-25.7 15.7-48.7 39.5-58.5z m504.3 0l-188-76.7c-26 0-47 21.1-47 47v321c0 94.2 76.3 170.6 170.6 170.6h60.1c24.2 0 43.8-19.6 43.8-43.8v-359.6a63.7 63.7 0 0 0-39.5-58.5zM849.1 563.5L833.3 579l-6.2 5.2v-325.6c0-34.3-20.6-64.8-52.3-77.8l-35.6-14.5c9.5-2.7 20.1-4.7 29.9-3.9l54.6 4.6c23.7 5.4 40.8 29.6 40.8 57.8V524.9c-0.1 14.9-5.7 28.9-15.4 38.6zM254.7 180.89999999999998c-31.8 12.9-52.3 43.5-52.3 77.8V587.4l-10-8.4-15.8-15.5c-9.7-9.6-15.3-23.7-15.3-38.5v-300.1c0-28.2 17.1-52.4 40.8-57.8l54.6-4.6c10.6-0.9 22.1 1.5 32 4.6l-34 13.8z"  horiz-adv-x="1024" />

    
    <glyph glyph-name="chuanbo" unicode="&#58931;" d="M492.2-36.200000000000045l1.2 495.7c0.1 23.5-26.4 37.3-45.7 23.8-9.8-6.9-21-14.6-33.2-22.7C274.6 367.79999999999995 90.8 478.8 56.6 433 3.9 362.6 305.7-61.799999999999955 462.8-65.10000000000002c16.1-0.4 29.3 12.8 29.4 28.9zM607.1 460.6c-12.2 8.1-23.4 15.8-33.2 22.7-19.3 13.5-45.7-0.3-45.7-23.8l1.2-495.7c0-16.1 13.2-29.3 29.3-28.9 157.2 3.3 459 427.7 406.3 498.1-34.2 45.8-218-65.2-357.9 27.6zM723.9 827.2H281.8c-16 0-29-13-29-29v-94c0-16 13-29 29-29h442.1c16 0 29 13 29 29v94c0 16-13 29-29 29z m-287.1-103h-95c-16 0-29 13-29 29s13 29 29 29h95c16 0 29-13 29-29s-13-29-29-29z m227 0h-95c-16 0-29 13-29 29s13 29 29 29h95c16 0 29-13 29-29s-13-29-29-29zM413.5 510.6c33.8 22.4 59.4 41.3 71.4 50.4 5 3.8 11.2 5.9 17.5 5.9h14.8c6.3 0 12.5-2.1 17.5-5.9 12.1-9.1 37.6-28 71.4-50.4 75.9-50.4 161.7-37 229.8-32 15.2 1.1 26.9 13.7 26.9 28.9v99.7c0 16-13 29-29 29h-656c-16 0-29-13-29-29v-99.5c0-15.2 11.7-27.8 26.8-28.9 69.4-5.2 159-20.5 237.9 31.8z"  horiz-adv-x="1024" />

    
    <glyph glyph-name="icon-dangdifill" unicode="&#58899;" d="M814.899 166.44500000000005c-52.182 15.88-113.72 27.297-179.772 33.62 83.38 122.791 144.99 275.473 144.99 379.626 0 144.027-119.428 260.733-266.739 260.733-147.317 0-266.739-116.706-266.739-260.733 0-102.386 61.575-255.895 145.228-379.483-66.637-6.29-128.728-17.752-181.31-33.753-60.228-18.326-132.023-49.885-132.023-96.16 0-89.684 218.426-136.608 434.195-136.608 112.413 0 218.349 12.394 298.294 34.9 88.905 25.027 135.899 60.197 135.899 101.707 0 46.264-71.794 77.823-132.023 96.151zM514.325 714.01c60.772 0 110.043-49.269 110.043-110.064 0-60.753-49.27-110.034-110.043-110.034-60.784 0-110.055 49.28-110.055 110.034 0 60.795 49.27 110.064 110.055 110.064z m368.954-672.444c-18.848-12.545-47.584-24.46-83.1-34.459-76.514-21.538-178.6-33.402-287.45-33.402s-210.939 11.864-287.452 33.402c-35.516 9.999-64.25 21.914-83.1 34.459-15.235 10.14-23.626 20.343-23.626 28.73 0 5.562 17.592 31.687 103.655 57.874 56.15 17.087 123.938 28.756 196.708 34.17 24.391-32.316 50.161-61.677 76.473-86.333 4.392-4.923 10.781-8.1 17.991-8.1 7.101 0 13.408 3.081 17.8 7.87 26.407 24.668 52.311 54.062 76.838 86.45 72.206-5.462 139.457-17.093 195.233-34.068 86.064-26.191 103.656-52.306 103.656-57.866 0-8.384-8.391-18.586-23.626-28.727z"  horiz-adv-x="1024" />

    
    <glyph glyph-name="tiaozheng" unicode="&#58940;" d="M203.345253 816.114145a118.132401 118.132401 0 0 0 223.270237 0.551285L1142.025308 818.398039a39.377467 39.377467 0 0 0 0.15751-78.754934l-715.724838-1.732609a118.132401 118.132401 0 0 0-222.325178-0.551284L39.456236 736.9654370000001a39.377467 39.377467 0 1 0-0.15751 78.754934l163.967772 0.393774z m630.590754-392.199569a118.132401 118.132401 0 0 0 222.246423 0.472529l85.764123 0.236265a39.377467 39.377467 0 0 0 0.15751-78.754934l-85.134083-0.236265a118.132401 118.132401 0 0 0-223.427747-0.551284L39.456236 343.19076800000005a39.377467 39.377467 0 1 0-0.15751 78.754934l794.558527 1.890119zM124.511565 28.328542999999968a118.132401 118.132401 0 0 0 223.427746 0.551285l794.007242 1.890118a39.377467 39.377467 0 0 0 0.15751-78.754933l-794.558526-1.890119a118.132401 118.132401 0 0 0-222.246423-0.551284l-85.764123-0.236265a39.377467 39.377467 0 1 0-0.15751 78.754934l85.134084 0.236264z"  horiz-adv-x="1181" />

    
    <glyph glyph-name="riqi" unicode="&#58947;" d="M353.792678 738.4465720000001h314.512938V815.465671h-314.512938v-77.019099z m471.769407 0h78.847662c21.357623 0 39.058118-17.919923 39.058118-40.813539v-668.376564a40.228399 40.228399 0 0 0-39.496973-40.740397H118.127402a40.082114 40.082114 0 0 0-39.496973 40.740397V697.6330330000001c0 22.893616 17.773638 40.813539 39.643258 40.813539h80.091086V815.465671H118.273687A117.759495 117.759495 0 0 1 0.002194 697.706176v-668.52285c0-64.877436 52.662631-117.759495 118.125208-117.759495H904.044034c65.535719 0 118.125208 53.028344 118.125208 117.759495V697.706176c0 64.950579-52.370061 117.759495-117.759495 117.759495h-78.77452v-76.945956h-0.073142zM235.886898 857.668919A38.765548 38.765548 0 0 0 275.164444 895.995611 38.765548 38.765548 0 0 0 314.515132 857.742061v-161.791307a38.765548 38.765548 0 0 0-39.350688-38.25355 38.765548 38.765548 0 0 0-39.277546 38.25355V857.742061v-0.073142z m471.769406 0A38.765548 38.765548 0 0 0 746.860708 895.995611a38.765548 38.765548 0 0 0 39.277546-38.25355v-161.645021a38.765548 38.765548 0 0 0-39.277546-38.253551 38.765548 38.765548 0 0 0-39.350689 38.326693V857.742061l0.146285-0.073142z m-471.769406-430.297585c0 21.211338 17.700496 38.546121 39.570116 38.546121h471.184266c21.942763 0 39.570116-17.115355 39.570116-38.546121 0-21.211338-17.627353-38.472978-39.496973-38.472978H275.383871a38.984976 38.984976 0 0 0-39.570116 38.472978h0.073143z m0-198.435721c0 21.211338 17.700496 38.546121 39.570116 38.546121h471.184266c21.942763 0 39.570116-17.115355 39.570116-38.546121 0-21.211338-17.627353-38.472978-39.496973-38.472978H275.383871a38.984976 38.984976 0 0 0-39.570116 38.472978h0.073143z"  horiz-adv-x="1024" />

    
    <glyph glyph-name="liebiao" unicode="&#59063;" d="M365.4656 896h-292.352A73.216 73.216 0 0 1 0 822.784v-292.6592c0-40.448 32.768-73.216 73.1648-73.216h292.352a73.216 73.216 0 0 1 73.1136 73.216V822.784C438.6304 863.232 405.8624 896 365.4656 896z m256.3584-146.2272h364.8a36.5568 36.5568 0 1 1 0 73.216h-364.8a36.5568 36.5568 0 1 1 0-73.216z m364.8-146.432h-364.8a36.5568 36.5568 0 1 1 0-73.216h364.8a36.5568 36.5568 0 1 1 0 73.216zM365.4656 311.29600000000005h-292.352A73.216 73.216 0 0 1 0 238.13120000000004v-292.6592c0-40.448 32.768-73.216 73.1648-73.216h292.352a73.216 73.216 0 0 1 73.1136 73.216V238.08000000000004c0 40.448-32.768 73.216-73.1648 73.216z m621.1584-73.0112h-364.8a36.5568 36.5568 0 1 1 0-73.216h364.8a36.5568 36.5568 0 1 1 0 73.216z m0-219.648h-364.8a36.5568 36.5568 0 1 1 0-73.216h364.8a36.5568 36.5568 0 1 1 0 73.216z"  horiz-adv-x="1024" />

    
    <glyph glyph-name="renyuanleibie" unicode="&#58904;" d="M527.910876 422.966477c73.077366 0 130.165572 72.135924 138.850371 175.409009 5.053086 59.749826-6.971785 107.294678-34.747385 137.50984-23.989367 26.113751-59.019185 39.33896-104.10094 39.33896s-80.109526-13.225209-104.092753-39.318494c-27.782763-30.215162-39.781028-77.760015-34.746362-137.530306C397.785214 495.102401 454.874443 422.966477 527.910876 422.966477zM648.771525 396.013615c-5.791913 2.661619-12.035104 3.219321-16.274662 3.219321-7.30743 0-14.250562-1.641383-19.542078-4.541433-0.500397-0.258896-49.365314-26.932396-85.053118-26.932396-35.607986 0-84.572164 26.672476-85.033675 26.932396-9.674337 5.323239-25.663496 5.964852-35.847439 1.322112-15.22782-6.964622-148.795884-69.435419-148.795884-119.521141 101.32164 0 466.735074 0 539.373441 0C797.598108 326.57819600000005 664.010601 389.050016 648.771525 396.013615zM585.989643 223.763552L469.872019 223.763552c-22.533202 0-40.981367-18.447141-40.981367-40.980343l0-116.117624c0-22.531156 18.448164-40.980343 40.981367-40.980343l116.118648 0c22.531156 0 40.980343 18.449187 40.980343 40.97932L626.97101 182.78320900000006C626.97101 205.31641100000002 608.521822 223.763552 585.989643 223.763552zM866.023524 223.763552L749.913063 223.763552c-22.539342 0-40.980343-18.447141-40.980343-40.980343l0-116.117624c0-22.531156 18.441001-40.980343 40.980343-40.980343l116.111484 0c22.539342 0 40.980343 18.449187 40.980343 40.97932L907.004891 182.78320900000006C907.003867 205.31641100000002 888.56389 223.763552 866.023524 223.763552zM305.948599 223.763552L189.839161 223.763552c-22.539342 0-40.980343-18.447141-40.980343-40.980343l0-116.117624c0-22.531156 18.439978-40.980343 40.980343-40.980343L305.948599 25.68524100000002c22.541389 0 40.980343 18.449187 40.980343 40.97932L346.928942 182.78320900000006C346.928942 205.31641100000002 328.489988 223.763552 305.948599 223.763552z"  horiz-adv-x="1024" />

    
    <glyph glyph-name="matou" unicode="&#58972;" d="M645.981 573.807h-111.65v79.75c47.85 15.95 82.94 63.801 82.94 118.032C617.271 838.579 563.041 896 492.86 896h-3.19c-66.99 0-124.411-54.23-124.411-124.411 0-54.23 35.09-102.081 82.94-118.031v-79.751H336.55v-57.42h118.03v-194.593s-41.47-114.84-130.79-111.65c-89.322 3.19-185.023 82.94-185.023 82.94l31.9 3.19-79.75 95.701-25.52-114.841 35.09 6.38s66.99-118.031 169.072-162.692c102.08-47.85 204.162-102.08 223.302-105.27 6.38 0 19.14 6.38 35.09 12.76V516.386h118.031v57.42zM492.86 701.408c-38.28 0-70.18 28.71-70.18 66.99 0 38.281 28.71 66.991 66.99 66.991h3.19c38.28 0 66.99-28.71 66.99-66.99 0-38.28-28.71-66.99-66.99-66.99zM907.564 391.975c-35.09 28.71-86.131 41.47-156.312 41.47H563.04V-128h89.321V79.352h86.131c63.8 0 114.841 15.95 156.312 47.85 41.47 35.09 60.61 76.561 60.61 133.982 3.19 60.61-12.76 102.08-47.85 130.791zM751.252 143.153h-95.7V376.025h76.56c57.42 0 89.321-15.95 108.461-41.47 15.95-22.33 22.33-47.85 22.33-73.371v-6.38c-3.19-51.04-25.52-105.271-111.65-111.651z"  horiz-adv-x="1024" />

    
    <glyph glyph-name="chuanliebiao" unicode="&#58901;" d="M63.04551549 50.60800967c-17.4315784 0.62628386-33.71496972-8.2460757-42.58732927-23.27689808-8.87236077-14.92644174-8.87236077-33.61058907 0-48.5370308 8.87236077-14.92644174 25.26013152-23.90318316 42.58732927-23.27689808h252.91446196c17.4315784-0.62628386 33.71496972 8.2460757 42.58733049 23.27689808 8.87236077 14.92644174 8.87236077 33.61058907 0 48.5370308-8.87236077 14.92644174-25.26013152 23.90318316-42.58733049 23.27689808H63.04551549zM63.04551549 430.65817802c-17.4315784 0.62628386-33.71496972-8.2460757-42.58732927-23.2768993-8.87236077-14.92644174-8.87236077-33.61058907 0-48.5370296 8.87236077-14.92644174 25.26013152-23.90318316 42.58732927-23.27689929h252.91446196c17.4315784-0.62628386 33.71496972 8.2460757 42.58733049 23.27689929 8.87236077 14.92644174 8.87236077 33.61058907 0 48.5370296-8.87236077 14.92644174-25.26013152 23.90318316-42.58733049 23.2768993H63.04551549zM854.46006343 715.6175181799999c12.63006637 0 24.7382283 4.90589389 33.71496972 13.88263409 8.97674141 8.87236077 13.98701473 20.9805227 13.98701595 33.61058906 0 26.19955852-20.9805227 47.49322316-47.70198567 47.49322316H63.04551549c-26.19955852 0-47.49322316-21.29366463-47.49322316-47.49322316s21.29366463-47.49322316 47.49322316-47.49322315h791.41454794zM504.88906365-37.906831890000035l-0.41752257 0.83504515c5.63655839 0.93942579 10.95997486 1.35694958 15.76148688 1.35694958 18.78852798 0 35.28068059-5.53217775 71.70954824-22.54623357l8.97674142-4.17522817-7.72417248 0.41752257c4.27960881-1.77447216 8.45483698-3.65332495 12.9432083-5.63655839 25.15575088-11.27311679 31.73173627-14.09139538 43.00485306-17.95348283 15.34396431-5.32341646 28.39155325-7.93293377 40.81285711-7.93293377 17.64033968 0 33.71496972 4.27960881 55.63491942 14.0913966 5.21903582 2.40075602 10.54245228 4.80151325 20.4586195 9.60302527h-0.52190444c7.72417248 3.54894431 16.07463003 7.61979184 25.26013273 12.31692322 29.12221776 14.82206109 38.09895917 18.78852798 49.37207596 21.18928399 2.81827859 0.62628386 5.63655839 0.93942579 8.45483697 0.93942701 5.21903582 0 12.52568573-1.04380765 21.71118843-2.92266045 25.78203595 1.67009151 53.02540091-1.56571087 85.59218233-10.02054785 9.9161672-2.6095173 15.86586753-12.73444701 13.25635023-22.65061422s-12.73444701-15.86586753-22.65061421-13.25635022c-64.82042092 16.90967518-102.60623815 10.33368978-160.32877167-16.90967518-12.73444701-6.05408097-19.10166991-9.08112206-25.57327344-12.00378129-26.19955852-11.69063936-46.97131995-17.32719775-70.66574181-17.32719775-17.01405582 0-34.02811165 3.44456366-53.0254009 10.02054784-12.73444701 4.38398945-19.72795377 7.41103055-46.03189294 19.20605056-69.10003094 30.89668991-103.85880709 35.8025838-153.54402497 9.49864463-9.08112206-4.80151325-20.2498582-1.35694958-25.05137146 7.72417248-4.80151325 9.08112206-1.35694958 20.2498582 7.72417248 25.05137022 30.27040605 15.76148688 56.67872586 22.54623357 84.86151783 21.08490457z m-34.96753743 69.10002972l-89.55865043 177.34282748c-11.58625872 22.96375615-1.1481883 47.28446188 24.00756379 54.48673114l73.79716233 20.87614206 23.69442187 189.24222812c3.23580238 25.57327466 26.72146174 46.34503609 52.71225897 46.34503609h83.50456825c0.52190322 5.11465518 1.98323344 10.54245228 4.59275074 16.2833901l26.40831981 58.97510244c13.15196959 29.43536091 34.44563422 29.53974155 47.70198566 0l26.40831981-58.97510244c2.50513666-5.63655839 4.07084752-11.16873614 4.59275074-16.2833901h83.50456825c25.88641659 0 49.58083724-21.29366463 52.71225897-46.34503609L907.3810837 283.89889851l73.79716354-20.87614206c24.84260895-7.09788862 35.8025838-31.62735563 24.32070451-55.32177628l-88.41046091-181.8311988c-22.65061422 6.47160354-42.06542606 10.64683293-58.03567545 12.0037825l69.51755352 142.27090819c11.37749743 23.48565936 0.31314193 47.91074574-24.52946701 54.90425371l-165.23466555 46.76255866c-25.05137023 7.09788862-65.34232534 7.09788862-90.18493428 0L483.28225709 235.04872577000003c-24.94698959-7.09788862-35.48944187-31.62735563-23.69442187-54.90425371l72.02269138-142.16652754c-3.75770559 0.20876129-7.61979184 0.41752257-11.37749864 0.41752257-17.01405582-0.20876129-33.923731-2.6095173-50.31150174-7.20226926z m379.11074133 269.30223392l-22.23309165 178.07349199H558.74951092l-22.23309165-178.07349199L647.78625692 332.12278738c24.84260895 7.09788862 64.82042092 7.09788862 89.976173 0l111.26983763-31.62735563zM674.29895737 241.31156801999998c0 10.43807164 8.55921884 18.78852798 18.47538604 18.78852798 10.22930913 0 18.57976669-8.35045634 18.57976669-18.78852798v-213.24979071c0-10.33368978-8.2460757-18.68414734-18.57976669-18.89290862-5.01027453 0-9.70740592 2.08761409-13.15196958 5.63655839-3.44456366 3.54894431-5.42779711 8.35045634-5.32341646 13.25635023V241.31156801999998z m0 0"  horiz-adv-x="1024" />

    
    <glyph glyph-name="yubaoxinxishenhe" unicode="&#58986;" d="M972.8 441.1392A435.2 435.2 0 1 1 314.3168-128H102.4a51.2 51.2 0 0 0-51.2 51.2V844.8a51.2 51.2 0 0 0 51.2 51.2h819.2a51.2 51.2 0 0 0 51.2-51.2v-403.6608zM256 793.6a51.2 51.2 0 1 1 0-102.4h512a51.2 51.2 0 0 1 0 102.4H256z m336.64-768c2.8672 20.992 3.9936 42.1888 3.328 63.3344A204.9024 204.9024 0 0 0 665.6 486.4a204.8 204.8 0 0 0 70.4-397.2096c-0.7168-21.1968 0.4096-42.496 3.2768-63.5904H921.6a51.2 51.2 0 0 0 51.2-51.2v-102.4H358.4v102.4a51.2 51.2 0 0 0 51.2 51.2h183.04z"  horiz-adv-x="1024" />

    
    <glyph glyph-name="tiaodongshenqing" unicode="&#59025;" d="M624.170667 354.81600000000003c-41.194667-40.277333-68.864-70.570667-82.986667-90.88-36.821333-52.970667-44.629333-106.432-44.629333-150.506667 0-55.466667 14.72-107.456 40.469333-152.234666H76.693333c-18.773333 0-34.026667 16.298667-34.026666 36.394666v45.610667c0 3.413333 0.533333 6.912 1.664 10.538667 10.112 30.805333 31.146667 58.090667 62.506666 81.173333 24.362667 17.962667 55.232 33.536 91.712 46.357333 56.661333 19.904 115.370667 27.882667 135.125334 30.250667 1.066667 0.128-0.917333 51.434667-0.277334 52.416 0.128 0.213333 0 18.922667-10.965333 31.274667a3.370667 3.370667 0 0 1-0.810667 0.896c-32.469333 27.456-60.117333 66.56-80.277333 113.493333a4.032 4.032 0 0 1-3.072 2.496c-28.245333 4.138667-54.336 34.752-63.594667 75.818667-10.154667 45.013333 1.344 87.338667 27.434667 104.277333a4.373333 4.373333 0 0 1 1.898667 3.733333c-1.365333 86.058667 19.2 154.346667 61.226666 202.986667C319.253333 861.525333 393.429333 874.666667 446.101333 874.666667c52.693333 0 126.848-13.141333 180.906667-75.754667 42.026667-48.64 62.592-116.906667 61.226667-202.986667a4.394667 4.394667 0 0 1 1.898666-3.733333c26.069333-16.938667 37.568-59.242667 27.434667-104.277333-9.28-41.066667-35.370667-71.68-63.616-75.818667a4.032 4.032 0 0 1-3.093333-2.474667c-6.656-15.616-14.4-30.72-23.168-45.226666l-3.541334-9.578667zM768-85.33333300000004c-117.824 0-213.333333 95.509333-213.333333 213.333333s95.509333 213.333333 213.333333 213.333333 213.333333-95.509333 213.333333-213.333333-95.509333-213.333333-213.333333-213.333333z m88.896 268.266666h-134.869333l19.925333 20.501334a18.773333 18.773333 0 0 1 0 25.898666 17.472 17.472 0 0 1-25.152 0l-50.282667-51.797333a18.282667 18.282667 0 0 1-4.608-8.277333l-0.021333-0.106667a12.544 12.544 0 0 1-0.149333-0.64c0-0.106667-0.042667-0.213333-0.064-0.298667l-0.064-0.469333-0.085334-0.448-0.042666-0.362667a22.186667 22.186667 0 0 1-0.064-0.533333l-0.021334-0.341333-0.042666-0.554667v-0.874667c0-4.864 1.856-9.536 5.184-12.970666a17.472 17.472 0 0 1 12.586666-5.333334h177.770667a18.112 18.112 0 0 1 17.770667 18.304 18.112 18.112 0 0 1-17.770667 18.304z m-177.792-109.866666h134.869333l-19.925333-20.501334a18.773333 18.773333 0 0 1 0-25.898666 17.472 17.472 0 0 1 25.152 0l50.282667 51.797333a18.282667 18.282667 0 0 1 4.608 8.277333l0.021333 0.106667a12.544 12.544 0 0 1 0.149333 0.64c0 0.106667 0.042667 0.213333 0.064 0.298667l0.064 0.469333 0.085334 0.448 0.042666 0.362667a19.626667 19.626667 0 0 1 0.064 0.533333l0.021334 0.341333 0.042666 0.554667v0.874667a18.538667 18.538667 0 0 1-5.184 12.970666 17.472 17.472 0 0 1-12.586666 5.333334h-177.770667a18.112 18.112 0 0 1-17.770667-18.304 18.112 18.112 0 0 1 17.770667-18.304z"  horiz-adv-x="1024" />

    
    <glyph glyph-name="zhixingdiaodu" unicode="&#58903;" d="M853.074152 891.666865L170.557919 891.666865C137.04869 891.666865 109.631842 863.449196 109.631842 828.962614L109.631842-14.464959000000022C109.631842-48.95270300000004 137.049819-77.16921100000002 170.557919-77.16921100000002L607.521341-77.16921100000002C591.861028-55.826296999999954 579.183632-32.039079000000015 570.13658-6.452935000000025L198.322773-6.452935000000025C181.833118-6.452935000000025 168.341069 7.430305999999973 168.341069 24.402070999999978L168.34107 790.09791C168.34107 807.068514 181.833119 820.954081 198.322774 820.954081L825.308171 820.954081C841.801216 820.954081 855.291004 807.06735 855.291004 790.09791L855.291004 355.74861699999997C875.699125 352.81707700000004 895.362652 347.493559 913.999101 340.04900899999996L913.999101 828.962614C914.000228 863.449195 886.58564 891.666865 853.074152 891.666865L853.074152 891.666865ZM783.427562 546.410331L783.427562 586.223919C783.427562 593.555676 777.656072 599.496666 770.53323 599.496666L254.707812 599.496665C247.587227 599.496665 241.812345 593.554511 241.812345 586.223918L241.812345 546.410329C241.812345 539.080899 247.586098 533.137583 254.707812 533.137583L770.53323 533.137583C777.65494 533.1375840000001 783.427562 539.0808999999999 783.427562 546.410331L783.427562 546.410331ZM254.707812 673.236342L770.53323 673.236342C777.656072 673.236342 783.427562 679.179658 783.427562 686.509088L783.427562 726.322677C783.427562 733.652108 777.656072 739.595424 770.53323 739.595424L254.707812 739.595424C247.587227 739.595424 241.812345 733.65327 241.812345 726.322677L241.812345 686.509088C241.812345 679.179658 247.586098 673.236342 254.707812 673.236342L254.707812 673.236342ZM568.491457 446.126323C568.491457 453.45808 562.717705 459.400232 555.593732 459.400232L254.707812 459.400232C247.587227 459.400232 241.812345 453.455753 241.812345 446.126323L241.812345 406.311572C241.812345 398.983303 247.586098 393.039987 254.707812 393.039987L555.593731 393.039987C562.717705 393.039987 568.491456 398.982141 568.491456 406.311572L568.491457 446.126323 568.491457 446.126323ZM555.593731 319.301476L254.707812 319.301476C247.587227 319.301476 241.812345 313.36048600000004 241.812345 306.027563L241.812345 266.21746700000006C241.812345 258.884543 247.586098 252.94471799999997 254.707812 252.94471799999997L555.593731 252.94471799999997C562.717705 252.94471799999997 568.491456 258.884543 568.491456 266.21746700000006L568.491456 306.027563C568.491457 313.36048100000005 562.717705 319.301476 555.593731 319.301476L555.593731 319.301476ZM827.903531 407.248827L604.050311 105.97701500000005 717.742376 105.97701500000005 690.148136-124.405259 914.000228 176.86539300000004 800.308159 176.86539300000004 827.903531 407.248827Z"  horiz-adv-x="1024" />

    
    <glyph glyph-name="aisshu" unicode="&#58902;" d="M904.918285 255.914806l-72.903831 0 0 97.869606c0 32.276626-24.557457 58.540016-54.85082 58.540016L540.198555 412.324428l0 97.756014 54.665593 0c20.230711 0 36.527644 17.531099 36.527644 39.156643L631.391791 725.0884100000001c0 21.686945-16.354241 39.156643-36.527644 39.156643L430.818249 764.245054c-20.230711 0-36.527644-17.531099-36.527644-39.156643L394.290605 549.2360610000001c0-21.686945 16.354241-39.156643 36.527644-39.156643l36.426331 0 0-97.756014L230.2795 412.323404c-30.309737 0-54.85082-26.209152-54.85082-58.540016l0-97.869606-54.665593 0c-20.230711 0-36.527644-17.531099-36.527644-39.156643l0-175.852349c0-21.686945 16.354241-39.156643 36.527644-39.156643l164.045899 0c20.230711 0 36.527644 17.531099 36.527644 39.156643L321.33663 216.75816199999997c0 21.686945-16.354241 39.156643-36.527644 39.156643l-54.665593 0 0 97.756014 237.100163 0 0-97.756014-36.426331 0c-20.230711 0-36.527644-17.531099-36.527644-39.156643l0-175.852349c0-21.686945 16.354241-39.156643 36.527644-39.156643l164.045899 0c20.230711 0 36.527644 17.531099 36.527644 39.156643L631.390768 216.75816199999997c0 21.686945-16.354241 39.156643-36.527644 39.156643L540.198555 255.914806l0 97.756014 237.100163 0 0-97.756014-36.426331 0c-20.230711 0-36.527644-17.531099-36.527644-39.156643l0-175.852349c0-21.686945 16.354241-39.156643 36.527644-39.156643l164.045899 0c20.230711 0 36.527644 17.531099 36.527644 39.156643L941.445929 216.75816199999997C941.444906 238.445108 925.091688 255.914806 904.918285 255.914806z"  horiz-adv-x="1024" />

    
    <glyph glyph-name="shuiweijiance" unicode="&#58927;" d="M832.752941 112.94117600000004v90.352942h-120.470588v79.811764h120.470588v120.470589h-120.470588v79.811764h120.470588v120.470589h-120.470588V685.176471h120.470588V764.988235h79.811765v-706.258823c13.552941-12.047059 24.094118-22.588235 30.117647-31.62353l-60.235294-49.694117c-10.541176 12.047059-22.588235 24.094118-36.141177 34.635294-25.6 19.576471-48.188235 31.623529-66.258823 31.623529-12.047059 0-18.070588-4.517647-36.141177-25.6-31.623529-39.152941-54.211765-54.211765-97.882353-54.211764s-66.258824 16.564706-97.882353 54.211764c-18.070588 21.082353-24.094118 25.6-36.141176 25.6-12.047059 0-18.070588-4.517647-36.141176-25.6-31.623529-39.152941-54.211765-54.211765-97.882353-54.211764s-66.258824 16.564706-97.882353 54.211764c-18.070588 21.082353-24.094118 25.6-36.141177 25.6-19.576471 0-39.152941-6.023529-54.211765-18.070588-10.541176-7.529412-16.564706-13.552941-19.57647-18.070588l-4.517647-6.02353-27.105883-27.105882-58.729411 54.211765c9.035294 9.035294 18.070588 19.576471 27.105882 28.611764 7.529412 9.035294 18.070588 21.082353 34.635294 31.62353 28.611765 21.082353 63.247059 33.129412 100.894118 33.129412 43.670588 0 66.258824-16.564706 97.882353-54.211765 18.070588-21.082353 24.094118-25.6 36.141176-25.6 12.047059 0 18.070588 4.517647 36.141177 25.6 31.623529 39.152941 54.211765 54.211765 97.882353 54.211765s66.258824-16.564706 97.882353-54.211765c18.070588-21.082353 24.094118-25.6 36.141176-25.6 12.047059 0 18.070588 4.517647 36.141177 25.6 31.623529 39.152941 54.211765 54.211765 97.882352 54.211765 18.070588 1.505882 36.141176-3.011765 54.211765-9.035295z m-481.882353 131.011765C240.941176 243.952941 150.588235 335.81176500000004 150.588235 448.752941 150.588235 584.2823530000001 335.811765 805.647059 350.870588 805.647059s200.282353-221.364706 200.282353-356.894118c0-112.941176-90.352941-204.8-200.282353-204.8z m0 0"  horiz-adv-x="1024" />

    
    <glyph glyph-name="shuju" unicode="&#58900;" d="M1003.343-88.71699999999998H62.153V799.292h53.164v-834.835h888.026M967.886 19.40700000000004H188.001v326.14l184.344 155.97L563.772 288.82000000000005l205.609 418.311 198.505-205.614zM834.431 750.75l-89.42 92.556-56.758-115.488-146.686-298.399-102.059 113.38L380.856 608l-66.909-56.674-126.009-106.598v-50.463l160.343 135.677 27.564 23.326 24.162-26.847 154.615-171.808 181.353 368.948 23.368 47.566 36.843-38.136L967.99 555.034v49.773z"  horiz-adv-x="1024" />

    
    <glyph glyph-name="arrow-right-copy-copy-copy" unicode="&#58884;" d="M357.957 728.8240000000001l-49.463-48.973 294.308-296.327-296.782-293.831 49.044-49.381 346.239 342.809z"  horiz-adv-x="1024" />

    


  </font>
</defs>
</svg>
